<mxfile host="Electron" modified="2024-11-04T13:21:19.321Z" agent="Mozilla/5.0 (Windows NT 10.0; Win64; x64) AppleWebKit/537.36 (KHTML, like Gecko) draw.io/22.1.11 Chrome/114.0.5735.289 Electron/25.9.8 Safari/537.36" etag="RU6ygg7gTiw6PH-zw10X" version="22.1.11" type="device">
  <diagram name="Seite-1" id="C7iRUkNIQroJkmuH7oDe">
    <mxGraphModel dx="1293" dy="756" grid="1" gridSize="10" guides="1" tooltips="1" connect="1" arrows="1" fold="1" page="1" pageScale="1" pageWidth="1169" pageHeight="827" math="1" shadow="0">
      <root>
        <mxCell id="0" />
        <mxCell id="1" parent="0" />
        <mxCell id="ta56inV7T2upTpdkAs2z-22" value="" style="rounded=1;whiteSpace=wrap;html=1;fontSize=12;fillColor=none;glass=0;dashed=1;strokeColor=#b85450;" vertex="1" parent="1">
          <mxGeometry x="300" y="1310" width="260" height="100" as="geometry" />
        </mxCell>
        <mxCell id="npIou5uu6BImQNLSPjZp-273" value="" style="rounded=0;whiteSpace=wrap;html=1;glass=0;fontSize=12;fillColor=none;strokeColor=#9673a6;arcSize=5;" parent="1" vertex="1">
          <mxGeometry x="360" y="1840" width="520" height="330" as="geometry" />
        </mxCell>
        <mxCell id="npIou5uu6BImQNLSPjZp-309" value="" style="rounded=1;whiteSpace=wrap;html=1;fontSize=12;fillColor=none;glass=0;dashed=1;strokeColor=#b85450;" parent="1" vertex="1">
          <mxGeometry x="390.12" y="3550" width="219.88" height="160" as="geometry" />
        </mxCell>
        <mxCell id="npIou5uu6BImQNLSPjZp-229" value="" style="rounded=1;whiteSpace=wrap;html=1;fontSize=12;fillColor=none;glass=0;dashed=1;strokeColor=#b85450;" parent="1" vertex="1">
          <mxGeometry x="459.87" y="2770" width="210.13" height="60" as="geometry" />
        </mxCell>
        <mxCell id="npIou5uu6BImQNLSPjZp-268" value="" style="whiteSpace=wrap;html=1;rounded=0;glass=0;labelBackgroundColor=#FFFFFF;fontSize=12;fillColor=none;strokeColor=#9673a6;" parent="1" vertex="1">
          <mxGeometry x="360" y="2640" width="480" height="320" as="geometry" />
        </mxCell>
        <mxCell id="npIou5uu6BImQNLSPjZp-221" value="" style="rounded=1;whiteSpace=wrap;html=1;fontSize=12;fillColor=none;glass=0;dashed=1;strokeColor=#b85450;" parent="1" vertex="1">
          <mxGeometry x="440" y="2000" width="60" height="40" as="geometry" />
        </mxCell>
        <mxCell id="npIou5uu6BImQNLSPjZp-220" value="" style="rounded=1;whiteSpace=wrap;html=1;fontSize=12;fillColor=none;glass=0;dashed=1;strokeColor=#b85450;" parent="1" vertex="1">
          <mxGeometry x="390" y="2060" width="160" height="90" as="geometry" />
        </mxCell>
        <mxCell id="npIou5uu6BImQNLSPjZp-145" value="" style="rounded=0;whiteSpace=wrap;html=1;glass=0;fontSize=12;fillColor=none;strokeColor=#9673a6;" parent="1" vertex="1">
          <mxGeometry x="360" y="200" width="400" height="300" as="geometry" />
        </mxCell>
        <mxCell id="npIou5uu6BImQNLSPjZp-107" value="" style="rounded=1;whiteSpace=wrap;html=1;fontSize=12;fillColor=none;glass=0;dashed=1;strokeColor=#b85450;" parent="1" vertex="1">
          <mxGeometry x="440" y="1140" width="220" height="120" as="geometry" />
        </mxCell>
        <mxCell id="npIou5uu6BImQNLSPjZp-108" value="" style="rounded=1;whiteSpace=wrap;html=1;fontSize=12;fillColor=none;glass=0;dashed=1;strokeColor=#6c8ebf;" parent="1" vertex="1">
          <mxGeometry x="390" y="1010" width="140" height="80" as="geometry" />
        </mxCell>
        <mxCell id="npIou5uu6BImQNLSPjZp-130" style="edgeStyle=orthogonalEdgeStyle;rounded=0;orthogonalLoop=1;jettySize=auto;html=1;entryX=0;entryY=0.5;entryDx=0;entryDy=0;fontSize=12;endArrow=classic;endFill=1;" parent="1" source="1whrTMr1qIedSJHb0maG-1" target="npIou5uu6BImQNLSPjZp-129" edge="1">
          <mxGeometry relative="1" as="geometry" />
        </mxCell>
        <mxCell id="1whrTMr1qIedSJHb0maG-1" value="PWM" style="rounded=0;whiteSpace=wrap;html=1;fillColor=#e1d5e7;strokeColor=#9673a6;" parent="1" vertex="1">
          <mxGeometry x="600" y="300" width="120" height="40" as="geometry" />
        </mxCell>
        <mxCell id="1whrTMr1qIedSJHb0maG-2" value="Sampling Strobe&lt;br&gt;Generator" style="whiteSpace=wrap;html=1;fillColor=#e1d5e7;strokeColor=#9673a6;" parent="1" vertex="1">
          <mxGeometry x="600" y="380" width="120" height="40" as="geometry" />
        </mxCell>
        <mxCell id="npIou5uu6BImQNLSPjZp-154" style="edgeStyle=orthogonalEdgeStyle;rounded=0;orthogonalLoop=1;jettySize=auto;html=1;entryX=1;entryY=0.5;entryDx=0;entryDy=0;fontSize=12;endArrow=classic;endFill=1;" parent="1" source="1whrTMr1qIedSJHb0maG-6" target="npIou5uu6BImQNLSPjZp-143" edge="1">
          <mxGeometry relative="1" as="geometry" />
        </mxCell>
        <mxCell id="1whrTMr1qIedSJHb0maG-6" value="ADC Value" style="rounded=0;whiteSpace=wrap;html=1;fillColor=#dae8fc;strokeColor=#6c8ebf;" parent="1" vertex="1">
          <mxGeometry x="400" y="240" width="120" height="20" as="geometry" />
        </mxCell>
        <mxCell id="1whrTMr1qIedSJHb0maG-8" style="edgeStyle=orthogonalEdgeStyle;rounded=0;orthogonalLoop=1;jettySize=auto;html=1;entryX=0.75;entryY=1;entryDx=0;entryDy=0;" parent="1" source="1whrTMr1qIedSJHb0maG-2" target="dwvMu35WHq-RKmSjm5z5-4" edge="1">
          <mxGeometry relative="1" as="geometry">
            <mxPoint x="505" y="390" as="targetPoint" />
          </mxGeometry>
        </mxCell>
        <mxCell id="1whrTMr1qIedSJHb0maG-50" value="sampling_strb_o" style="edgeLabel;html=1;align=center;verticalAlign=middle;resizable=0;points=[];" parent="1whrTMr1qIedSJHb0maG-8" vertex="1" connectable="0">
          <mxGeometry x="0.3871" y="1" relative="1" as="geometry">
            <mxPoint x="32" y="9" as="offset" />
          </mxGeometry>
        </mxCell>
        <mxCell id="dwvMu35WHq-RKmSjm5z5-5" style="edgeStyle=orthogonalEdgeStyle;rounded=0;orthogonalLoop=1;jettySize=auto;html=1;entryX=0.5;entryY=1;entryDx=0;entryDy=0;" parent="1" source="dwvMu35WHq-RKmSjm5z5-4" target="1whrTMr1qIedSJHb0maG-6" edge="1">
          <mxGeometry relative="1" as="geometry" />
        </mxCell>
        <mxCell id="dwvMu35WHq-RKmSjm5z5-6" style="edgeStyle=orthogonalEdgeStyle;rounded=0;orthogonalLoop=1;jettySize=auto;html=1;entryX=0;entryY=0.5;entryDx=0;entryDy=0;" parent="1" source="dwvMu35WHq-RKmSjm5z5-4" target="1whrTMr1qIedSJHb0maG-1" edge="1">
          <mxGeometry relative="1" as="geometry" />
        </mxCell>
        <mxCell id="npIou5uu6BImQNLSPjZp-140" style="edgeStyle=orthogonalEdgeStyle;rounded=0;orthogonalLoop=1;jettySize=auto;html=1;entryX=1;entryY=0.5;entryDx=0;entryDy=0;fontSize=12;endArrow=classic;endFill=1;" parent="1" source="dwvMu35WHq-RKmSjm5z5-4" target="npIou5uu6BImQNLSPjZp-139" edge="1">
          <mxGeometry relative="1" as="geometry" />
        </mxCell>
        <mxCell id="dwvMu35WHq-RKmSjm5z5-4" value="Combinatorics&lt;br&gt;of ADC" style="whiteSpace=wrap;html=1;fillColor=#f8cecc;strokeColor=#b85450;" parent="1" vertex="1">
          <mxGeometry x="400" y="280" width="120" height="80" as="geometry" />
        </mxCell>
        <mxCell id="npIou5uu6BImQNLSPjZp-156" style="edgeStyle=orthogonalEdgeStyle;rounded=0;orthogonalLoop=1;jettySize=auto;html=1;entryX=0;entryY=0.5;entryDx=0;entryDy=0;fontSize=12;endArrow=classic;endFill=1;" parent="1" source="dwvMu35WHq-RKmSjm5z5-10" target="npIou5uu6BImQNLSPjZp-56" edge="1">
          <mxGeometry relative="1" as="geometry" />
        </mxCell>
        <mxCell id="dwvMu35WHq-RKmSjm5z5-10" value="PWM" style="rounded=0;whiteSpace=wrap;html=1;fillColor=#FFFFFF;strokeColor=#9673a6;" parent="1" vertex="1">
          <mxGeometry x="680" y="1080" width="120" height="60" as="geometry" />
        </mxCell>
        <mxCell id="npIou5uu6BImQNLSPjZp-87" style="edgeStyle=orthogonalEdgeStyle;rounded=0;orthogonalLoop=1;jettySize=auto;html=1;exitX=0;exitY=0.5;exitDx=0;exitDy=0;endArrow=none;endFill=0;" parent="1" source="dwvMu35WHq-RKmSjm5z5-11" target="npIou5uu6BImQNLSPjZp-77" edge="1">
          <mxGeometry relative="1" as="geometry" />
        </mxCell>
        <mxCell id="npIou5uu6BImQNLSPjZp-128" value="sampling_strb_o" style="edgeLabel;html=1;align=center;verticalAlign=middle;resizable=0;points=[];fontSize=12;" parent="npIou5uu6BImQNLSPjZp-87" vertex="1" connectable="0">
          <mxGeometry x="-0.3744" y="1" relative="1" as="geometry">
            <mxPoint y="-1" as="offset" />
          </mxGeometry>
        </mxCell>
        <mxCell id="dwvMu35WHq-RKmSjm5z5-11" value="Sampling Strobe&lt;br&gt;Generator" style="whiteSpace=wrap;html=1;fillColor=#FFFFFF;strokeColor=#9673a6;" parent="1" vertex="1">
          <mxGeometry x="680" y="1250" width="120" height="60" as="geometry" />
        </mxCell>
        <mxCell id="dwvMu35WHq-RKmSjm5z5-38" style="edgeStyle=orthogonalEdgeStyle;rounded=0;orthogonalLoop=1;jettySize=auto;html=1;" parent="1" source="dwvMu35WHq-RKmSjm5z5-12" target="npIou5uu6BImQNLSPjZp-54" edge="1">
          <mxGeometry relative="1" as="geometry">
            <mxPoint x="320" y="1070" as="targetPoint" />
          </mxGeometry>
        </mxCell>
        <mxCell id="dwvMu35WHq-RKmSjm5z5-12" value="ADC Value" style="rounded=0;whiteSpace=wrap;html=1;" parent="1" vertex="1">
          <mxGeometry x="400" y="1060" width="120" height="20" as="geometry" />
        </mxCell>
        <mxCell id="npIou5uu6BImQNLSPjZp-1" style="edgeStyle=orthogonalEdgeStyle;rounded=0;orthogonalLoop=1;jettySize=auto;html=1;entryX=0.5;entryY=1;entryDx=0;entryDy=0;" parent="1" source="dwvMu35WHq-RKmSjm5z5-40" target="dwvMu35WHq-RKmSjm5z5-12" edge="1">
          <mxGeometry relative="1" as="geometry" />
        </mxCell>
        <mxCell id="npIou5uu6BImQNLSPjZp-28" style="edgeStyle=orthogonalEdgeStyle;rounded=0;orthogonalLoop=1;jettySize=auto;html=1;exitDx=0;exitDy=0;entryX=1;entryY=0.5;entryDx=0;entryDy=0;entryPerimeter=0;startArrow=none;" parent="1" source="npIou5uu6BImQNLSPjZp-81" target="npIou5uu6BImQNLSPjZp-18" edge="1">
          <mxGeometry relative="1" as="geometry">
            <Array as="points">
              <mxPoint x="640" y="1110" />
              <mxPoint x="640" y="1160" />
            </Array>
          </mxGeometry>
        </mxCell>
        <mxCell id="npIou5uu6BImQNLSPjZp-29" style="edgeStyle=orthogonalEdgeStyle;rounded=0;orthogonalLoop=1;jettySize=auto;html=1;exitDx=0;exitDy=0;entryX=1;entryY=0.5;entryDx=0;entryDy=0;entryPerimeter=0;startArrow=none;" parent="1" source="npIou5uu6BImQNLSPjZp-79" target="npIou5uu6BImQNLSPjZp-21" edge="1">
          <mxGeometry relative="1" as="geometry">
            <Array as="points">
              <mxPoint x="640" y="1110" />
              <mxPoint x="640" y="1240" />
            </Array>
          </mxGeometry>
        </mxCell>
        <mxCell id="npIou5uu6BImQNLSPjZp-38" style="edgeStyle=orthogonalEdgeStyle;rounded=0;orthogonalLoop=1;jettySize=auto;html=1;exitX=1;exitY=0.5;exitDx=0;exitDy=0;entryX=0;entryY=0.5;entryDx=0;entryDy=0;" parent="1" source="dwvMu35WHq-RKmSjm5z5-40" target="dwvMu35WHq-RKmSjm5z5-10" edge="1">
          <mxGeometry relative="1" as="geometry">
            <Array as="points">
              <mxPoint x="670" y="1110" />
              <mxPoint x="670" y="1110" />
            </Array>
          </mxGeometry>
        </mxCell>
        <mxCell id="ta56inV7T2upTpdkAs2z-6" style="edgeStyle=orthogonalEdgeStyle;rounded=0;orthogonalLoop=1;jettySize=auto;html=1;exitX=0.75;exitY=1;exitDx=0;exitDy=0;entryX=0.75;entryY=1;entryDx=0;entryDy=0;" edge="1" parent="1" source="dwvMu35WHq-RKmSjm5z5-40" target="ta56inV7T2upTpdkAs2z-2">
          <mxGeometry relative="1" as="geometry">
            <Array as="points">
              <mxPoint x="510" y="1120" />
              <mxPoint x="510" y="1180" />
            </Array>
          </mxGeometry>
        </mxCell>
        <mxCell id="dwvMu35WHq-RKmSjm5z5-40" value="ON_counter_val" style="rounded=0;whiteSpace=wrap;html=1;" parent="1" vertex="1">
          <mxGeometry x="400" y="1100" width="120" height="20" as="geometry" />
        </mxCell>
        <mxCell id="npIou5uu6BImQNLSPjZp-25" style="edgeStyle=orthogonalEdgeStyle;rounded=0;orthogonalLoop=1;jettySize=auto;html=1;entryX=0.5;entryY=1;entryDx=0;entryDy=0;entryPerimeter=0;" parent="1" target="npIou5uu6BImQNLSPjZp-18" edge="1">
          <mxGeometry relative="1" as="geometry">
            <mxPoint x="600.0000000000001" y="1190" as="sourcePoint" />
          </mxGeometry>
        </mxCell>
        <mxCell id="npIou5uu6BImQNLSPjZp-26" style="edgeStyle=orthogonalEdgeStyle;rounded=0;orthogonalLoop=1;jettySize=auto;html=1;entryX=0.5;entryY=0;entryDx=0;entryDy=0;entryPerimeter=0;" parent="1" target="npIou5uu6BImQNLSPjZp-21" edge="1">
          <mxGeometry relative="1" as="geometry">
            <mxPoint x="600.0000000000001" y="1210" as="sourcePoint" />
          </mxGeometry>
        </mxCell>
        <mxCell id="npIou5uu6BImQNLSPjZp-16" value="-" style="text;html=1;align=center;verticalAlign=middle;resizable=0;points=[];autosize=1;strokeColor=none;fillColor=none;" parent="1" vertex="1">
          <mxGeometry x="580" y="1215" width="20" height="20" as="geometry" />
        </mxCell>
        <mxCell id="npIou5uu6BImQNLSPjZp-17" value="+" style="text;html=1;align=center;verticalAlign=middle;resizable=0;points=[];autosize=1;strokeColor=none;fillColor=none;" parent="1" vertex="1">
          <mxGeometry x="580" y="1165" width="20" height="20" as="geometry" />
        </mxCell>
        <mxCell id="npIou5uu6BImQNLSPjZp-22" style="edgeStyle=orthogonalEdgeStyle;rounded=0;orthogonalLoop=1;jettySize=auto;html=1;exitX=0;exitY=0.5;exitDx=0;exitDy=0;exitPerimeter=0;entryX=0.75;entryY=1;entryDx=0;entryDy=0;" parent="1" source="npIou5uu6BImQNLSPjZp-18" edge="1">
          <mxGeometry relative="1" as="geometry">
            <mxPoint x="560" y="1175" as="targetPoint" />
            <Array as="points">
              <mxPoint x="580" y="1160" />
              <mxPoint x="580" y="1175" />
            </Array>
          </mxGeometry>
        </mxCell>
        <mxCell id="npIou5uu6BImQNLSPjZp-18" value="" style="verticalLabelPosition=bottom;shadow=0;dashed=0;align=center;html=1;verticalAlign=top;shape=mxgraph.electrical.abstract.sum;" parent="1" vertex="1">
          <mxGeometry x="590" y="1150" width="20" height="20" as="geometry" />
        </mxCell>
        <mxCell id="npIou5uu6BImQNLSPjZp-20" value="+" style="text;html=1;align=center;verticalAlign=middle;resizable=0;points=[];autosize=1;strokeColor=none;fillColor=none;" parent="1" vertex="1">
          <mxGeometry x="600" y="1140" width="20" height="20" as="geometry" />
        </mxCell>
        <mxCell id="npIou5uu6BImQNLSPjZp-23" style="edgeStyle=orthogonalEdgeStyle;rounded=0;orthogonalLoop=1;jettySize=auto;html=1;entryX=0.25;entryY=1;entryDx=0;entryDy=0;" parent="1" source="npIou5uu6BImQNLSPjZp-21" edge="1">
          <mxGeometry relative="1" as="geometry">
            <mxPoint x="560" y="1225" as="targetPoint" />
            <Array as="points">
              <mxPoint x="580" y="1240" />
              <mxPoint x="580" y="1225" />
            </Array>
          </mxGeometry>
        </mxCell>
        <mxCell id="npIou5uu6BImQNLSPjZp-21" value="" style="verticalLabelPosition=bottom;shadow=0;dashed=0;align=center;html=1;verticalAlign=top;shape=mxgraph.electrical.abstract.sum;" parent="1" vertex="1">
          <mxGeometry x="590" y="1230" width="20" height="20" as="geometry" />
        </mxCell>
        <mxCell id="npIou5uu6BImQNLSPjZp-27" value="+" style="text;html=1;align=center;verticalAlign=middle;resizable=0;points=[];autosize=1;strokeColor=none;fillColor=none;" parent="1" vertex="1">
          <mxGeometry x="600" y="1240" width="20" height="20" as="geometry" />
        </mxCell>
        <mxCell id="npIou5uu6BImQNLSPjZp-37" value="1" style="whiteSpace=wrap;html=1;" parent="1" vertex="1">
          <mxGeometry x="590" y="1190" width="20" height="20" as="geometry" />
        </mxCell>
        <mxCell id="npIou5uu6BImQNLSPjZp-42" style="edgeStyle=orthogonalEdgeStyle;rounded=0;orthogonalLoop=1;jettySize=auto;html=1;exitX=0.5;exitY=0;exitDx=0;exitDy=0;entryX=0.75;entryY=1;entryDx=0;entryDy=0;" parent="1" source="npIou5uu6BImQNLSPjZp-39" target="dwvMu35WHq-RKmSjm5z5-10" edge="1">
          <mxGeometry relative="1" as="geometry" />
        </mxCell>
        <mxCell id="npIou5uu6BImQNLSPjZp-39" value="clk_i" style="rounded=1;whiteSpace=wrap;html=1;" parent="1" vertex="1">
          <mxGeometry x="750" y="1160" width="40" height="20" as="geometry" />
        </mxCell>
        <mxCell id="npIou5uu6BImQNLSPjZp-44" style="edgeStyle=orthogonalEdgeStyle;rounded=0;orthogonalLoop=1;jettySize=auto;html=1;entryX=0.25;entryY=1;entryDx=0;entryDy=0;" parent="1" source="npIou5uu6BImQNLSPjZp-43" target="dwvMu35WHq-RKmSjm5z5-10" edge="1">
          <mxGeometry relative="1" as="geometry" />
        </mxCell>
        <mxCell id="npIou5uu6BImQNLSPjZp-43" value="rst_i" style="rounded=1;whiteSpace=wrap;html=1;" parent="1" vertex="1">
          <mxGeometry x="690" y="1160" width="40" height="20" as="geometry" />
        </mxCell>
        <mxCell id="npIou5uu6BImQNLSPjZp-46" value="1&lt;br&gt;&lt;br&gt;&lt;div&gt;&lt;br&gt;&lt;/div&gt;0" style="shape=trapezoid;perimeter=trapezoidPerimeter;whiteSpace=wrap;fixedSize=1;rotation=90;horizontal=0;textDirection=ltr;verticalAlign=middle;html=1;direction=west;align=right;" parent="1" vertex="1">
          <mxGeometry x="490" y="1180" width="100" height="40" as="geometry" />
        </mxCell>
        <mxCell id="npIou5uu6BImQNLSPjZp-53" style="edgeStyle=orthogonalEdgeStyle;rounded=0;orthogonalLoop=1;jettySize=auto;html=1;entryX=0;entryY=0.5;entryDx=0;entryDy=0;" parent="1" source="npIou5uu6BImQNLSPjZp-47" target="npIou5uu6BImQNLSPjZp-52" edge="1">
          <mxGeometry relative="1" as="geometry" />
        </mxCell>
        <mxCell id="npIou5uu6BImQNLSPjZp-47" value="clk_i" style="rounded=1;whiteSpace=wrap;html=1;" parent="1" vertex="1">
          <mxGeometry x="480.25" y="1020" width="40" height="20" as="geometry" />
        </mxCell>
        <mxCell id="npIou5uu6BImQNLSPjZp-49" style="edgeStyle=orthogonalEdgeStyle;rounded=0;orthogonalLoop=1;jettySize=auto;html=1;" parent="1" source="npIou5uu6BImQNLSPjZp-48" edge="1">
          <mxGeometry relative="1" as="geometry">
            <mxPoint x="420" y="1060" as="targetPoint" />
            <Array as="points">
              <mxPoint x="420" y="1060" />
            </Array>
          </mxGeometry>
        </mxCell>
        <mxCell id="npIou5uu6BImQNLSPjZp-48" value="rst_i" style="rounded=1;whiteSpace=wrap;html=1;" parent="1" vertex="1">
          <mxGeometry x="400" y="1020" width="40" height="20" as="geometry" />
        </mxCell>
        <mxCell id="npIou5uu6BImQNLSPjZp-52" value="" style="triangle;whiteSpace=wrap;html=1;rotation=90;" parent="1" vertex="1">
          <mxGeometry x="495.25" y="1058.75" width="10" height="12.5" as="geometry" />
        </mxCell>
        <mxCell id="npIou5uu6BImQNLSPjZp-54" value="ADC_o" style="rounded=1;whiteSpace=wrap;html=1;" parent="1" vertex="1">
          <mxGeometry x="120" y="1050" width="120" height="40" as="geometry" />
        </mxCell>
        <mxCell id="npIou5uu6BImQNLSPjZp-55" value="ADC_valid_strb_o" style="rounded=1;whiteSpace=wrap;html=1;" parent="1" vertex="1">
          <mxGeometry x="120" y="1340" width="120" height="40" as="geometry" />
        </mxCell>
        <mxCell id="npIou5uu6BImQNLSPjZp-56" value="PWM_o" style="rounded=1;whiteSpace=wrap;html=1;" parent="1" vertex="1">
          <mxGeometry x="860" y="1090" width="120" height="40" as="geometry" />
        </mxCell>
        <mxCell id="ta56inV7T2upTpdkAs2z-25" style="edgeStyle=orthogonalEdgeStyle;rounded=0;orthogonalLoop=1;jettySize=auto;html=1;exitX=0;exitY=0.5;exitDx=0;exitDy=0;endArrow=none;endFill=0;" edge="1" parent="1" source="npIou5uu6BImQNLSPjZp-57" target="npIou5uu6BImQNLSPjZp-101">
          <mxGeometry relative="1" as="geometry">
            <Array as="points">
              <mxPoint x="720" y="1340" />
              <mxPoint x="720" y="1340" />
            </Array>
          </mxGeometry>
        </mxCell>
        <mxCell id="npIou5uu6BImQNLSPjZp-57" value="Comparator_i" style="rounded=1;whiteSpace=wrap;html=1;" parent="1" vertex="1">
          <mxGeometry x="860" y="1320" width="120" height="40" as="geometry" />
        </mxCell>
        <mxCell id="npIou5uu6BImQNLSPjZp-68" style="edgeStyle=orthogonalEdgeStyle;rounded=0;orthogonalLoop=1;jettySize=auto;html=1;entryX=0.75;entryY=0;entryDx=0;entryDy=0;" parent="1" source="npIou5uu6BImQNLSPjZp-65" target="dwvMu35WHq-RKmSjm5z5-11" edge="1">
          <mxGeometry relative="1" as="geometry" />
        </mxCell>
        <mxCell id="npIou5uu6BImQNLSPjZp-65" value="clk_i" style="rounded=1;whiteSpace=wrap;html=1;" parent="1" vertex="1">
          <mxGeometry x="750" y="1210" width="40" height="20" as="geometry" />
        </mxCell>
        <mxCell id="npIou5uu6BImQNLSPjZp-67" style="edgeStyle=orthogonalEdgeStyle;rounded=0;orthogonalLoop=1;jettySize=auto;html=1;entryX=0.25;entryY=0;entryDx=0;entryDy=0;" parent="1" source="npIou5uu6BImQNLSPjZp-66" target="dwvMu35WHq-RKmSjm5z5-11" edge="1">
          <mxGeometry relative="1" as="geometry" />
        </mxCell>
        <mxCell id="npIou5uu6BImQNLSPjZp-66" value="rst_i" style="rounded=1;whiteSpace=wrap;html=1;" parent="1" vertex="1">
          <mxGeometry x="690" y="1210" width="40" height="20" as="geometry" />
        </mxCell>
        <mxCell id="ta56inV7T2upTpdkAs2z-5" style="edgeStyle=orthogonalEdgeStyle;rounded=0;orthogonalLoop=1;jettySize=auto;html=1;entryX=0;entryY=0.5;entryDx=0;entryDy=0;" edge="1" parent="1" source="npIou5uu6BImQNLSPjZp-77" target="ta56inV7T2upTpdkAs2z-2">
          <mxGeometry relative="1" as="geometry" />
        </mxCell>
        <mxCell id="ta56inV7T2upTpdkAs2z-13" style="edgeStyle=orthogonalEdgeStyle;rounded=0;orthogonalLoop=1;jettySize=auto;html=1;entryX=1;entryY=0.5;entryDx=0;entryDy=0;" edge="1" parent="1" source="npIou5uu6BImQNLSPjZp-77" target="ta56inV7T2upTpdkAs2z-8">
          <mxGeometry relative="1" as="geometry" />
        </mxCell>
        <mxCell id="npIou5uu6BImQNLSPjZp-77" value="" style="shape=waypoint;sketch=0;size=6;pointerEvents=1;points=[];fillColor=none;resizable=0;rotatable=0;perimeter=centerPerimeter;snapToPoint=1;html=1;" parent="1" vertex="1">
          <mxGeometry x="470" y="1260" width="40" height="40" as="geometry" />
        </mxCell>
        <mxCell id="npIou5uu6BImQNLSPjZp-79" value="" style="shape=waypoint;sketch=0;size=6;pointerEvents=1;points=[];fillColor=none;resizable=0;rotatable=0;perimeter=centerPerimeter;snapToPoint=1;html=1;" parent="1" vertex="1">
          <mxGeometry x="620" y="1090" width="40" height="40" as="geometry" />
        </mxCell>
        <mxCell id="npIou5uu6BImQNLSPjZp-80" value="" style="edgeStyle=orthogonalEdgeStyle;rounded=0;orthogonalLoop=1;jettySize=auto;html=1;exitX=1;exitY=0.5;exitDx=0;exitDy=0;entryDx=0;entryDy=0;entryPerimeter=0;endArrow=none;" parent="1" source="dwvMu35WHq-RKmSjm5z5-40" target="npIou5uu6BImQNLSPjZp-79" edge="1">
          <mxGeometry relative="1" as="geometry">
            <mxPoint x="520" y="1110" as="sourcePoint" />
            <mxPoint x="610" y="1240" as="targetPoint" />
            <Array as="points" />
          </mxGeometry>
        </mxCell>
        <mxCell id="npIou5uu6BImQNLSPjZp-81" value="" style="shape=waypoint;sketch=0;size=6;pointerEvents=1;points=[];fillColor=none;resizable=0;rotatable=0;perimeter=centerPerimeter;snapToPoint=1;html=1;" parent="1" vertex="1">
          <mxGeometry x="620" y="1140" width="40" height="40" as="geometry" />
        </mxCell>
        <mxCell id="npIou5uu6BImQNLSPjZp-82" value="" style="edgeStyle=orthogonalEdgeStyle;rounded=0;orthogonalLoop=1;jettySize=auto;html=1;exitX=1;exitY=0.5;exitDx=0;exitDy=0;entryDx=0;entryDy=0;entryPerimeter=0;endArrow=none;" parent="1" source="dwvMu35WHq-RKmSjm5z5-40" target="npIou5uu6BImQNLSPjZp-81" edge="1">
          <mxGeometry relative="1" as="geometry">
            <mxPoint x="520" y="1110" as="sourcePoint" />
            <mxPoint x="610" y="1160" as="targetPoint" />
            <Array as="points" />
          </mxGeometry>
        </mxCell>
        <mxCell id="npIou5uu6BImQNLSPjZp-91" style="edgeStyle=orthogonalEdgeStyle;rounded=0;orthogonalLoop=1;jettySize=auto;html=1;entryX=1;entryY=0.5;entryDx=0;entryDy=0;fontSize=20;endArrow=classic;endFill=1;" parent="1" source="npIou5uu6BImQNLSPjZp-90" target="npIou5uu6BImQNLSPjZp-55" edge="1">
          <mxGeometry relative="1" as="geometry" />
        </mxCell>
        <mxCell id="npIou5uu6BImQNLSPjZp-90" value="&lt;b&gt;&lt;font style=&quot;font-size: 20px&quot;&gt;&amp;amp;&lt;/font&gt;&lt;/b&gt;" style="whiteSpace=wrap;html=1;fillColor=default;gradientColor=none;" parent="1" vertex="1">
          <mxGeometry x="320" y="1340" width="40" height="40" as="geometry" />
        </mxCell>
        <mxCell id="npIou5uu6BImQNLSPjZp-117" style="edgeStyle=orthogonalEdgeStyle;rounded=0;orthogonalLoop=1;jettySize=auto;html=1;exitX=1;exitY=0.5;exitDx=0;exitDy=0;entryX=0;entryY=0.5;entryDx=0;entryDy=0;fontSize=12;endArrow=none;endFill=0;" parent="1" source="npIou5uu6BImQNLSPjZp-97" target="npIou5uu6BImQNLSPjZp-112" edge="1">
          <mxGeometry relative="1" as="geometry" />
        </mxCell>
        <mxCell id="npIou5uu6BImQNLSPjZp-97" value="" style="ellipse;whiteSpace=wrap;html=1;aspect=fixed;fontSize=20;fillColor=default;gradientColor=none;" parent="1" vertex="1">
          <mxGeometry x="360" y="1345" width="10" height="10" as="geometry" />
        </mxCell>
        <mxCell id="ta56inV7T2upTpdkAs2z-17" style="edgeStyle=orthogonalEdgeStyle;rounded=0;orthogonalLoop=1;jettySize=auto;html=1;" edge="1" parent="1" source="npIou5uu6BImQNLSPjZp-101" target="npIou5uu6BImQNLSPjZp-360">
          <mxGeometry relative="1" as="geometry" />
        </mxCell>
        <mxCell id="ta56inV7T2upTpdkAs2z-20" style="edgeStyle=orthogonalEdgeStyle;rounded=0;orthogonalLoop=1;jettySize=auto;html=1;entryX=1;entryY=0.75;entryDx=0;entryDy=0;" edge="1" parent="1" source="npIou5uu6BImQNLSPjZp-101" target="npIou5uu6BImQNLSPjZp-90">
          <mxGeometry relative="1" as="geometry">
            <Array as="points">
              <mxPoint x="540" y="1400" />
              <mxPoint x="380" y="1400" />
              <mxPoint x="380" y="1370" />
            </Array>
          </mxGeometry>
        </mxCell>
        <mxCell id="ta56inV7T2upTpdkAs2z-24" style="edgeStyle=orthogonalEdgeStyle;rounded=0;orthogonalLoop=1;jettySize=auto;html=1;entryX=0.75;entryY=1;entryDx=0;entryDy=0;" edge="1" parent="1" source="npIou5uu6BImQNLSPjZp-101" target="ta56inV7T2upTpdkAs2z-8">
          <mxGeometry relative="1" as="geometry" />
        </mxCell>
        <mxCell id="npIou5uu6BImQNLSPjZp-101" value="" style="shape=waypoint;sketch=0;size=6;pointerEvents=1;points=[];fillColor=none;resizable=0;rotatable=0;perimeter=centerPerimeter;snapToPoint=1;fontSize=20;html=1;" parent="1" vertex="1">
          <mxGeometry x="520.25" y="1320" width="40" height="40" as="geometry" />
        </mxCell>
        <mxCell id="npIou5uu6BImQNLSPjZp-109" value="combinatorial" style="text;html=1;align=center;verticalAlign=middle;resizable=0;points=[];autosize=1;strokeColor=#b85450;fillColor=#f8cecc;fontSize=12;" parent="1" vertex="1">
          <mxGeometry x="350" y="1190" width="90" height="20" as="geometry" />
        </mxCell>
        <mxCell id="npIou5uu6BImQNLSPjZp-110" value="combinatorial" style="text;html=1;align=center;verticalAlign=middle;resizable=0;points=[];autosize=1;strokeColor=#b85450;fillColor=#f8cecc;fontSize=12;" parent="1" vertex="1">
          <mxGeometry x="385" y="1290" width="90" height="20" as="geometry" />
        </mxCell>
        <mxCell id="npIou5uu6BImQNLSPjZp-111" value="sequential" style="text;html=1;align=center;verticalAlign=middle;resizable=0;points=[];autosize=1;strokeColor=#6c8ebf;fillColor=#dae8fc;fontSize=12;" parent="1" vertex="1">
          <mxGeometry x="530" y="1040" width="70" height="20" as="geometry" />
        </mxCell>
        <mxCell id="ta56inV7T2upTpdkAs2z-23" style="edgeStyle=orthogonalEdgeStyle;rounded=0;orthogonalLoop=1;jettySize=auto;html=1;exitX=0.5;exitY=1;exitDx=0;exitDy=0;entryX=0.25;entryY=1;entryDx=0;entryDy=0;" edge="1" parent="1" source="npIou5uu6BImQNLSPjZp-112" target="ta56inV7T2upTpdkAs2z-8">
          <mxGeometry relative="1" as="geometry" />
        </mxCell>
        <mxCell id="npIou5uu6BImQNLSPjZp-112" value="prev_comp" style="whiteSpace=wrap;html=1;glass=0;fontSize=12;fillColor=default;gradientColor=none;" parent="1" vertex="1">
          <mxGeometry x="380" y="1340" width="79.87" height="20" as="geometry" />
        </mxCell>
        <mxCell id="npIou5uu6BImQNLSPjZp-120" value="clk_i" style="rounded=1;whiteSpace=wrap;html=1;" parent="1" vertex="1">
          <mxGeometry x="780.25" y="1460" width="40" height="20" as="geometry" />
        </mxCell>
        <mxCell id="npIou5uu6BImQNLSPjZp-121" value="rst_i" style="rounded=1;whiteSpace=wrap;html=1;" parent="1" vertex="1">
          <mxGeometry x="720.25" y="1460" width="40" height="20" as="geometry" />
        </mxCell>
        <mxCell id="npIou5uu6BImQNLSPjZp-122" style="edgeStyle=orthogonalEdgeStyle;rounded=0;orthogonalLoop=1;jettySize=auto;html=1;entryX=0.25;entryY=1;entryDx=0;entryDy=0;" parent="1" source="npIou5uu6BImQNLSPjZp-121" edge="1">
          <mxGeometry relative="1" as="geometry">
            <mxPoint x="740.25" y="1440" as="targetPoint" />
          </mxGeometry>
        </mxCell>
        <mxCell id="npIou5uu6BImQNLSPjZp-123" style="edgeStyle=orthogonalEdgeStyle;rounded=0;orthogonalLoop=1;jettySize=auto;html=1;exitX=0.5;exitY=0;exitDx=0;exitDy=0;entryX=0.75;entryY=1;entryDx=0;entryDy=0;" parent="1" source="npIou5uu6BImQNLSPjZp-120" edge="1">
          <mxGeometry relative="1" as="geometry">
            <mxPoint x="800.25" y="1440" as="targetPoint" />
          </mxGeometry>
        </mxCell>
        <mxCell id="npIou5uu6BImQNLSPjZp-125" value="entity" style="whiteSpace=wrap;html=1;rounded=0;glass=0;fontSize=12;fillColor=#e1d5e7;strokeColor=#9673a6;" parent="1" vertex="1">
          <mxGeometry x="720" y="1060" width="40" height="20" as="geometry" />
        </mxCell>
        <mxCell id="npIou5uu6BImQNLSPjZp-126" value="entity" style="whiteSpace=wrap;html=1;rounded=0;glass=0;fontSize=12;fillColor=#e1d5e7;strokeColor=#9673a6;" parent="1" vertex="1">
          <mxGeometry x="720" y="1310" width="40" height="20" as="geometry" />
        </mxCell>
        <mxCell id="npIou5uu6BImQNLSPjZp-134" style="edgeStyle=orthogonalEdgeStyle;rounded=0;orthogonalLoop=1;jettySize=auto;html=1;entryX=0.5;entryY=0;entryDx=0;entryDy=0;fontSize=12;endArrow=classic;endFill=1;" parent="1" source="npIou5uu6BImQNLSPjZp-129" target="npIou5uu6BImQNLSPjZp-131" edge="1">
          <mxGeometry relative="1" as="geometry" />
        </mxCell>
        <mxCell id="npIou5uu6BImQNLSPjZp-129" value="PWM_o" style="rounded=1;whiteSpace=wrap;html=1;glass=0;fontSize=12;fillColor=#FFFFFF;gradientColor=none;" parent="1" vertex="1">
          <mxGeometry x="800" y="300" width="120" height="40" as="geometry" />
        </mxCell>
        <mxCell id="npIou5uu6BImQNLSPjZp-135" style="edgeStyle=orthogonalEdgeStyle;rounded=0;orthogonalLoop=1;jettySize=auto;html=1;entryX=0.5;entryY=0;entryDx=0;entryDy=0;fontSize=12;endArrow=classic;endFill=1;" parent="1" source="npIou5uu6BImQNLSPjZp-131" target="npIou5uu6BImQNLSPjZp-133" edge="1">
          <mxGeometry relative="1" as="geometry" />
        </mxCell>
        <mxCell id="npIou5uu6BImQNLSPjZp-131" value="external wiring" style="rounded=1;whiteSpace=wrap;html=1;glass=0;fontSize=12;fillColor=#FFFFFF;gradientColor=none;dashed=1;" parent="1" vertex="1">
          <mxGeometry x="800" y="370" width="120" height="40" as="geometry" />
        </mxCell>
        <mxCell id="npIou5uu6BImQNLSPjZp-137" style="edgeStyle=orthogonalEdgeStyle;rounded=0;orthogonalLoop=1;jettySize=auto;html=1;fontSize=12;endArrow=classic;endFill=1;entryX=0.25;entryY=1;entryDx=0;entryDy=0;" parent="1" source="npIou5uu6BImQNLSPjZp-133" target="dwvMu35WHq-RKmSjm5z5-4" edge="1">
          <mxGeometry relative="1" as="geometry">
            <mxPoint x="440" y="340" as="targetPoint" />
          </mxGeometry>
        </mxCell>
        <mxCell id="npIou5uu6BImQNLSPjZp-133" value="Comparator_i" style="rounded=1;whiteSpace=wrap;html=1;glass=0;fontSize=12;fillColor=default;gradientColor=none;" parent="1" vertex="1">
          <mxGeometry x="800" y="440" width="120" height="40" as="geometry" />
        </mxCell>
        <mxCell id="npIou5uu6BImQNLSPjZp-139" value="ADC_valid_strb_o" style="rounded=1;whiteSpace=wrap;html=1;glass=0;fontSize=12;fillColor=default;gradientColor=none;" parent="1" vertex="1">
          <mxGeometry x="200" y="300" width="120" height="40" as="geometry" />
        </mxCell>
        <mxCell id="npIou5uu6BImQNLSPjZp-143" value="ADC_o" style="rounded=1;whiteSpace=wrap;html=1;glass=0;fontSize=12;fillColor=default;gradientColor=none;" parent="1" vertex="1">
          <mxGeometry x="200" y="230" width="120" height="40" as="geometry" />
        </mxCell>
        <mxCell id="npIou5uu6BImQNLSPjZp-151" style="edgeStyle=orthogonalEdgeStyle;rounded=0;orthogonalLoop=1;jettySize=auto;html=1;fontSize=12;endArrow=classic;endFill=1;entryX=0.95;entryY=1;entryDx=0;entryDy=0;entryPerimeter=0;" parent="1" source="npIou5uu6BImQNLSPjZp-149" target="npIou5uu6BImQNLSPjZp-145" edge="1">
          <mxGeometry relative="1" as="geometry">
            <mxPoint x="740" y="490" as="targetPoint" />
          </mxGeometry>
        </mxCell>
        <mxCell id="npIou5uu6BImQNLSPjZp-149" value="clk_i" style="rounded=1;whiteSpace=wrap;html=1;" parent="1" vertex="1">
          <mxGeometry x="720" y="520" width="40" height="20" as="geometry" />
        </mxCell>
        <mxCell id="npIou5uu6BImQNLSPjZp-152" style="edgeStyle=orthogonalEdgeStyle;rounded=0;orthogonalLoop=1;jettySize=auto;html=1;entryX=0.8;entryY=1;entryDx=0;entryDy=0;entryPerimeter=0;fontSize=12;endArrow=classic;endFill=1;" parent="1" source="npIou5uu6BImQNLSPjZp-150" target="npIou5uu6BImQNLSPjZp-145" edge="1">
          <mxGeometry relative="1" as="geometry" />
        </mxCell>
        <mxCell id="npIou5uu6BImQNLSPjZp-150" value="rst_i" style="rounded=1;whiteSpace=wrap;html=1;" parent="1" vertex="1">
          <mxGeometry x="660" y="520" width="40" height="20" as="geometry" />
        </mxCell>
        <mxCell id="npIou5uu6BImQNLSPjZp-155" value="delta_ADC" style="whiteSpace=wrap;html=1;rounded=0;glass=0;fontSize=12;fillColor=#e1d5e7;strokeColor=#9673a6;" parent="1" vertex="1">
          <mxGeometry x="510" y="960" width="100" height="20" as="geometry" />
        </mxCell>
        <mxCell id="npIou5uu6BImQNLSPjZp-206" style="edgeStyle=orthogonalEdgeStyle;rounded=0;orthogonalLoop=1;jettySize=auto;html=1;entryX=0.5;entryY=0;entryDx=0;entryDy=0;fontSize=12;endArrow=classic;endFill=1;startArrow=none;" parent="1" target="npIou5uu6BImQNLSPjZp-189" edge="1">
          <mxGeometry relative="1" as="geometry">
            <mxPoint x="530" y="2020" as="sourcePoint" />
            <Array as="points">
              <mxPoint x="530" y="2020" />
              <mxPoint x="530" y="2060" />
            </Array>
          </mxGeometry>
        </mxCell>
        <mxCell id="npIou5uu6BImQNLSPjZp-212" style="edgeStyle=orthogonalEdgeStyle;rounded=0;orthogonalLoop=1;jettySize=auto;html=1;exitDx=0;exitDy=0;entryX=1;entryY=0.5;entryDx=0;entryDy=0;fontSize=12;endArrow=classic;endFill=1;startArrow=none;" parent="1" source="npIou5uu6BImQNLSPjZp-213" target="npIou5uu6BImQNLSPjZp-187" edge="1">
          <mxGeometry relative="1" as="geometry" />
        </mxCell>
        <mxCell id="npIou5uu6BImQNLSPjZp-157" value="Counter" style="rounded=0;whiteSpace=wrap;html=1;fillColor=#FFFFFF;strokeColor=#9673a6;" parent="1" vertex="1">
          <mxGeometry x="720" y="2010" width="120" height="40" as="geometry" />
        </mxCell>
        <mxCell id="npIou5uu6BImQNLSPjZp-158" value="entity" style="whiteSpace=wrap;html=1;rounded=0;glass=0;fontSize=12;fillColor=#e1d5e7;strokeColor=#9673a6;" parent="1" vertex="1">
          <mxGeometry x="760" y="1990" width="40" height="20" as="geometry" />
        </mxCell>
        <mxCell id="npIou5uu6BImQNLSPjZp-161" style="edgeStyle=orthogonalEdgeStyle;rounded=0;orthogonalLoop=1;jettySize=auto;html=1;entryX=0.75;entryY=1;entryDx=0;entryDy=0;fontSize=12;endArrow=classic;endFill=1;" parent="1" source="npIou5uu6BImQNLSPjZp-159" target="npIou5uu6BImQNLSPjZp-157" edge="1">
          <mxGeometry relative="1" as="geometry" />
        </mxCell>
        <mxCell id="npIou5uu6BImQNLSPjZp-159" value="clk_i" style="rounded=1;whiteSpace=wrap;html=1;" parent="1" vertex="1">
          <mxGeometry x="790" y="2090" width="40" height="20" as="geometry" />
        </mxCell>
        <mxCell id="npIou5uu6BImQNLSPjZp-162" style="edgeStyle=orthogonalEdgeStyle;rounded=0;orthogonalLoop=1;jettySize=auto;html=1;entryX=0.25;entryY=1;entryDx=0;entryDy=0;fontSize=12;endArrow=classic;endFill=1;" parent="1" source="npIou5uu6BImQNLSPjZp-160" target="npIou5uu6BImQNLSPjZp-157" edge="1">
          <mxGeometry relative="1" as="geometry" />
        </mxCell>
        <mxCell id="npIou5uu6BImQNLSPjZp-160" value="rst_i" style="rounded=1;whiteSpace=wrap;html=1;" parent="1" vertex="1">
          <mxGeometry x="730" y="2090" width="40" height="20" as="geometry" />
        </mxCell>
        <mxCell id="npIou5uu6BImQNLSPjZp-170" value="" style="rounded=1;whiteSpace=wrap;html=1;fontSize=12;fillColor=none;glass=0;dashed=1;strokeColor=#6c8ebf;" parent="1" vertex="1">
          <mxGeometry x="400" y="1860" width="140" height="80" as="geometry" />
        </mxCell>
        <mxCell id="npIou5uu6BImQNLSPjZp-178" style="edgeStyle=orthogonalEdgeStyle;rounded=0;orthogonalLoop=1;jettySize=auto;html=1;exitX=0;exitY=0.5;exitDx=0;exitDy=0;fontSize=12;endArrow=classic;endFill=1;entryX=1;entryY=0.5;entryDx=0;entryDy=0;" parent="1" source="npIou5uu6BImQNLSPjZp-171" target="npIou5uu6BImQNLSPjZp-179" edge="1">
          <mxGeometry relative="1" as="geometry">
            <mxPoint x="310" y="1959.842105263158" as="targetPoint" />
          </mxGeometry>
        </mxCell>
        <mxCell id="npIou5uu6BImQNLSPjZp-171" value="PWM_o" style="rounded=0;whiteSpace=wrap;html=1;" parent="1" vertex="1">
          <mxGeometry x="410" y="1910" width="120" height="20" as="geometry" />
        </mxCell>
        <mxCell id="npIou5uu6BImQNLSPjZp-172" style="edgeStyle=orthogonalEdgeStyle;rounded=0;orthogonalLoop=1;jettySize=auto;html=1;entryX=0;entryY=0.5;entryDx=0;entryDy=0;" parent="1" source="npIou5uu6BImQNLSPjZp-173" target="npIou5uu6BImQNLSPjZp-176" edge="1">
          <mxGeometry relative="1" as="geometry" />
        </mxCell>
        <mxCell id="npIou5uu6BImQNLSPjZp-173" value="clk_i" style="rounded=1;whiteSpace=wrap;html=1;" parent="1" vertex="1">
          <mxGeometry x="490.25" y="1870" width="40" height="20" as="geometry" />
        </mxCell>
        <mxCell id="npIou5uu6BImQNLSPjZp-174" style="edgeStyle=orthogonalEdgeStyle;rounded=0;orthogonalLoop=1;jettySize=auto;html=1;" parent="1" source="npIou5uu6BImQNLSPjZp-175" edge="1">
          <mxGeometry relative="1" as="geometry">
            <mxPoint x="430" y="1910" as="targetPoint" />
            <Array as="points">
              <mxPoint x="430" y="1910" />
            </Array>
          </mxGeometry>
        </mxCell>
        <mxCell id="npIou5uu6BImQNLSPjZp-175" value="rst_i" style="rounded=1;whiteSpace=wrap;html=1;" parent="1" vertex="1">
          <mxGeometry x="410" y="1870" width="40" height="20" as="geometry" />
        </mxCell>
        <mxCell id="npIou5uu6BImQNLSPjZp-176" value="" style="triangle;whiteSpace=wrap;html=1;rotation=90;" parent="1" vertex="1">
          <mxGeometry x="505.25" y="1908.75" width="10" height="12.5" as="geometry" />
        </mxCell>
        <mxCell id="npIou5uu6BImQNLSPjZp-177" value="sequential" style="text;html=1;align=center;verticalAlign=middle;resizable=0;points=[];autosize=1;strokeColor=#6c8ebf;fillColor=#dae8fc;fontSize=12;" parent="1" vertex="1">
          <mxGeometry x="540" y="1890" width="70" height="20" as="geometry" />
        </mxCell>
        <mxCell id="npIou5uu6BImQNLSPjZp-179" value="PWM_o" style="rounded=1;whiteSpace=wrap;html=1;glass=0;fontSize=12;fillColor=default;gradientColor=none;" parent="1" vertex="1">
          <mxGeometry x="160" y="1900" width="160" height="40" as="geometry" />
        </mxCell>
        <mxCell id="npIou5uu6BImQNLSPjZp-272" style="edgeStyle=orthogonalEdgeStyle;rounded=0;orthogonalLoop=1;jettySize=auto;html=1;entryX=0.5;entryY=1;entryDx=0;entryDy=0;fontSize=12;endArrow=classic;endFill=1;" parent="1" source="npIou5uu6BImQNLSPjZp-187" target="npIou5uu6BImQNLSPjZp-270" edge="1">
          <mxGeometry relative="1" as="geometry" />
        </mxCell>
        <mxCell id="npIou5uu6BImQNLSPjZp-187" value="&amp;gt;" style="ellipse;whiteSpace=wrap;html=1;aspect=fixed;rounded=0;glass=0;fontSize=12;fillColor=default;gradientColor=none;fontStyle=1" parent="1" vertex="1">
          <mxGeometry x="460" y="2010" width="20" height="20" as="geometry" />
        </mxCell>
        <mxCell id="npIou5uu6BImQNLSPjZp-205" style="edgeStyle=orthogonalEdgeStyle;rounded=0;orthogonalLoop=1;jettySize=auto;html=1;exitX=1;exitY=0.5;exitDx=0;exitDy=0;entryX=0;entryY=0.75;entryDx=0;entryDy=0;fontSize=12;endArrow=classic;endFill=1;" parent="1" source="npIou5uu6BImQNLSPjZp-189" target="npIou5uu6BImQNLSPjZp-157" edge="1">
          <mxGeometry relative="1" as="geometry">
            <Array as="points">
              <mxPoint x="560" y="2090" />
              <mxPoint x="560" y="2040" />
            </Array>
          </mxGeometry>
        </mxCell>
        <mxCell id="npIou5uu6BImQNLSPjZp-225" value="counter_rst_strobe_i" style="edgeLabel;html=1;align=center;verticalAlign=middle;resizable=0;points=[];fontSize=12;" parent="npIou5uu6BImQNLSPjZp-205" vertex="1" connectable="0">
          <mxGeometry x="0.205" relative="1" as="geometry">
            <mxPoint x="11" as="offset" />
          </mxGeometry>
        </mxCell>
        <mxCell id="npIou5uu6BImQNLSPjZp-189" value="&lt;b&gt;=&lt;/b&gt;" style="ellipse;whiteSpace=wrap;html=1;aspect=fixed;rounded=0;glass=0;fontSize=12;fillColor=default;gradientColor=none;" parent="1" vertex="1">
          <mxGeometry x="520.25" y="2080" width="20" height="20" as="geometry" />
        </mxCell>
        <mxCell id="npIou5uu6BImQNLSPjZp-191" style="edgeStyle=orthogonalEdgeStyle;rounded=0;orthogonalLoop=1;jettySize=auto;html=1;entryX=0.25;entryY=0;entryDx=0;entryDy=0;fontSize=12;endArrow=classic;endFill=1;" parent="1" source="npIou5uu6BImQNLSPjZp-190" target="dwvMu35WHq-RKmSjm5z5-10" edge="1">
          <mxGeometry relative="1" as="geometry" />
        </mxCell>
        <mxCell id="npIou5uu6BImQNLSPjZp-192" value="&lt;span style=&quot;&quot;&gt;Period_counter_val_i&lt;/span&gt;" style="edgeLabel;html=1;align=center;verticalAlign=middle;resizable=0;points=[];fontSize=12;labelBackgroundColor=#FFFFFF;" parent="npIou5uu6BImQNLSPjZp-191" vertex="1" connectable="0">
          <mxGeometry x="-0.1758" relative="1" as="geometry">
            <mxPoint y="-5" as="offset" />
          </mxGeometry>
        </mxCell>
        <mxCell id="npIou5uu6BImQNLSPjZp-190" value="BITWIDTH" style="rounded=1;whiteSpace=wrap;html=1;glass=0;fontSize=12;fillColor=default;gradientColor=none;" parent="1" vertex="1">
          <mxGeometry x="670" y="1000" width="80" height="20" as="geometry" />
        </mxCell>
        <mxCell id="npIou5uu6BImQNLSPjZp-194" style="edgeStyle=orthogonalEdgeStyle;rounded=0;orthogonalLoop=1;jettySize=auto;html=1;entryX=0.25;entryY=1;entryDx=0;entryDy=0;fontSize=12;endArrow=classic;endFill=1;" parent="1" source="npIou5uu6BImQNLSPjZp-193" target="dwvMu35WHq-RKmSjm5z5-11" edge="1">
          <mxGeometry relative="1" as="geometry" />
        </mxCell>
        <mxCell id="npIou5uu6BImQNLSPjZp-195" value="Sampling Period" style="edgeLabel;html=1;align=center;verticalAlign=middle;resizable=0;points=[];fontSize=12;" parent="npIou5uu6BImQNLSPjZp-194" vertex="1" connectable="0">
          <mxGeometry x="-0.7137" y="1" relative="1" as="geometry">
            <mxPoint x="1" y="-10" as="offset" />
          </mxGeometry>
        </mxCell>
        <mxCell id="npIou5uu6BImQNLSPjZp-193" value="PRESCALER" style="rounded=1;whiteSpace=wrap;html=1;glass=0;fontSize=12;fillColor=default;gradientColor=none;" parent="1" vertex="1">
          <mxGeometry x="670" y="1380" width="80" height="20" as="geometry" />
        </mxCell>
        <mxCell id="npIou5uu6BImQNLSPjZp-211" style="edgeStyle=orthogonalEdgeStyle;rounded=0;orthogonalLoop=1;jettySize=auto;html=1;exitX=1;exitY=0.5;exitDx=0;exitDy=0;entryX=0;entryY=0.5;entryDx=0;entryDy=0;fontSize=12;endArrow=classic;endFill=1;" parent="1" source="npIou5uu6BImQNLSPjZp-199" target="npIou5uu6BImQNLSPjZp-187" edge="1">
          <mxGeometry relative="1" as="geometry" />
        </mxCell>
        <mxCell id="npIou5uu6BImQNLSPjZp-199" value="ON_counter_val_i" style="rounded=1;whiteSpace=wrap;html=1;glass=0;fontSize=12;fillColor=default;gradientColor=none;" parent="1" vertex="1">
          <mxGeometry x="160" y="2000" width="160" height="40" as="geometry" />
        </mxCell>
        <mxCell id="npIou5uu6BImQNLSPjZp-219" style="edgeStyle=orthogonalEdgeStyle;rounded=0;orthogonalLoop=1;jettySize=auto;html=1;exitX=1;exitY=0.5;exitDx=0;exitDy=0;exitPerimeter=0;entryX=0;entryY=0.5;entryDx=0;entryDy=0;fontSize=12;endArrow=classic;endFill=1;" parent="1" source="npIou5uu6BImQNLSPjZp-202" target="npIou5uu6BImQNLSPjZp-189" edge="1">
          <mxGeometry relative="1" as="geometry" />
        </mxCell>
        <mxCell id="npIou5uu6BImQNLSPjZp-202" value="" style="verticalLabelPosition=bottom;shadow=0;dashed=0;align=center;html=1;verticalAlign=top;shape=mxgraph.electrical.abstract.sum;rounded=1;glass=0;labelBackgroundColor=#FFFFFF;fontSize=12;fillColor=default;gradientColor=none;" parent="1" vertex="1">
          <mxGeometry x="459.87" y="2080" width="20" height="20" as="geometry" />
        </mxCell>
        <mxCell id="npIou5uu6BImQNLSPjZp-217" style="edgeStyle=orthogonalEdgeStyle;rounded=0;orthogonalLoop=1;jettySize=auto;html=1;entryX=0;entryY=0.5;entryDx=0;entryDy=0;entryPerimeter=0;fontSize=12;endArrow=classic;endFill=1;startArrow=none;startFill=0;" parent="1" source="npIou5uu6BImQNLSPjZp-209" target="npIou5uu6BImQNLSPjZp-202" edge="1">
          <mxGeometry relative="1" as="geometry" />
        </mxCell>
        <mxCell id="npIou5uu6BImQNLSPjZp-209" value="Period_counter_val_i" style="rounded=1;whiteSpace=wrap;html=1;glass=0;fontSize=12;fillColor=default;gradientColor=none;" parent="1" vertex="1">
          <mxGeometry x="160" y="2070" width="160" height="40" as="geometry" />
        </mxCell>
        <mxCell id="npIou5uu6BImQNLSPjZp-214" value="" style="edgeStyle=orthogonalEdgeStyle;rounded=0;orthogonalLoop=1;jettySize=auto;html=1;exitX=0;exitY=0.25;exitDx=0;exitDy=0;fontSize=12;endArrow=none;endFill=1;" parent="1" source="npIou5uu6BImQNLSPjZp-157" edge="1">
          <mxGeometry relative="1" as="geometry">
            <mxPoint x="800" y="2020" as="sourcePoint" />
            <mxPoint x="570" y="2020" as="targetPoint" />
          </mxGeometry>
        </mxCell>
        <mxCell id="npIou5uu6BImQNLSPjZp-216" value="-" style="text;html=1;align=center;verticalAlign=middle;resizable=0;points=[];autosize=1;strokeColor=none;fillColor=none;fontSize=12;" parent="1" vertex="1">
          <mxGeometry x="470" y="2090" width="20" height="20" as="geometry" />
        </mxCell>
        <mxCell id="npIou5uu6BImQNLSPjZp-218" value="+" style="text;html=1;align=center;verticalAlign=middle;resizable=0;points=[];autosize=1;strokeColor=none;fillColor=none;fontSize=12;" parent="1" vertex="1">
          <mxGeometry x="445" y="2070" width="20" height="20" as="geometry" />
        </mxCell>
        <mxCell id="npIou5uu6BImQNLSPjZp-222" value="combinatorial" style="text;html=1;align=center;verticalAlign=middle;resizable=0;points=[];autosize=1;strokeColor=#b85450;fillColor=#f8cecc;fontSize=12;" parent="1" vertex="1">
          <mxGeometry x="424.87" y="2040" width="90" height="20" as="geometry" />
        </mxCell>
        <mxCell id="npIou5uu6BImQNLSPjZp-228" value="PWM" style="whiteSpace=wrap;html=1;rounded=0;glass=0;fontSize=12;fillColor=#e1d5e7;strokeColor=#9673a6;" parent="1" vertex="1">
          <mxGeometry x="570" y="1820" width="100" height="20" as="geometry" />
        </mxCell>
        <mxCell id="npIou5uu6BImQNLSPjZp-288" style="edgeStyle=orthogonalEdgeStyle;rounded=0;orthogonalLoop=1;jettySize=auto;html=1;exitX=0;exitY=0.25;exitDx=0;exitDy=0;entryX=0.5;entryY=1;entryDx=0;entryDy=0;fontSize=12;startArrow=none;startFill=0;endArrow=classic;endFill=1;" parent="1" source="npIou5uu6BImQNLSPjZp-232" target="npIou5uu6BImQNLSPjZp-252" edge="1">
          <mxGeometry relative="1" as="geometry" />
        </mxCell>
        <mxCell id="npIou5uu6BImQNLSPjZp-295" value="counter_o" style="edgeLabel;html=1;align=center;verticalAlign=middle;resizable=0;points=[];fontSize=12;" parent="npIou5uu6BImQNLSPjZp-288" vertex="1" connectable="0">
          <mxGeometry x="0.3287" y="-1" relative="1" as="geometry">
            <mxPoint x="-1" y="10" as="offset" />
          </mxGeometry>
        </mxCell>
        <mxCell id="npIou5uu6BImQNLSPjZp-232" value="Counter" style="rounded=0;whiteSpace=wrap;html=1;fillColor=#FFFFFF;strokeColor=#9673a6;" parent="1" vertex="1">
          <mxGeometry x="680" y="2850" width="120" height="40" as="geometry" />
        </mxCell>
        <mxCell id="npIou5uu6BImQNLSPjZp-233" value="entity" style="whiteSpace=wrap;html=1;rounded=0;glass=0;fontSize=12;fillColor=#e1d5e7;strokeColor=#9673a6;" parent="1" vertex="1">
          <mxGeometry x="720" y="2830" width="40" height="20" as="geometry" />
        </mxCell>
        <mxCell id="npIou5uu6BImQNLSPjZp-234" style="edgeStyle=orthogonalEdgeStyle;rounded=0;orthogonalLoop=1;jettySize=auto;html=1;entryX=0.75;entryY=1;entryDx=0;entryDy=0;fontSize=12;endArrow=classic;endFill=1;" parent="1" source="npIou5uu6BImQNLSPjZp-235" target="npIou5uu6BImQNLSPjZp-232" edge="1">
          <mxGeometry relative="1" as="geometry" />
        </mxCell>
        <mxCell id="npIou5uu6BImQNLSPjZp-235" value="clk_i" style="rounded=1;whiteSpace=wrap;html=1;" parent="1" vertex="1">
          <mxGeometry x="750" y="2910" width="40" height="20" as="geometry" />
        </mxCell>
        <mxCell id="npIou5uu6BImQNLSPjZp-236" style="edgeStyle=orthogonalEdgeStyle;rounded=0;orthogonalLoop=1;jettySize=auto;html=1;entryX=0.25;entryY=1;entryDx=0;entryDy=0;fontSize=12;endArrow=classic;endFill=1;" parent="1" source="npIou5uu6BImQNLSPjZp-237" target="npIou5uu6BImQNLSPjZp-232" edge="1">
          <mxGeometry relative="1" as="geometry" />
        </mxCell>
        <mxCell id="npIou5uu6BImQNLSPjZp-237" value="rst_i" style="rounded=1;whiteSpace=wrap;html=1;" parent="1" vertex="1">
          <mxGeometry x="690" y="2910" width="40" height="20" as="geometry" />
        </mxCell>
        <mxCell id="npIou5uu6BImQNLSPjZp-238" value="" style="rounded=1;whiteSpace=wrap;html=1;fontSize=12;fillColor=none;glass=0;dashed=1;strokeColor=#6c8ebf;" parent="1" vertex="1">
          <mxGeometry x="400" y="2680" width="140" height="80" as="geometry" />
        </mxCell>
        <mxCell id="npIou5uu6BImQNLSPjZp-239" style="edgeStyle=orthogonalEdgeStyle;rounded=0;orthogonalLoop=1;jettySize=auto;html=1;exitX=0;exitY=0.5;exitDx=0;exitDy=0;fontSize=12;endArrow=classic;endFill=1;entryX=1;entryY=0.5;entryDx=0;entryDy=0;" parent="1" source="npIou5uu6BImQNLSPjZp-240" target="npIou5uu6BImQNLSPjZp-247" edge="1">
          <mxGeometry relative="1" as="geometry">
            <mxPoint x="310" y="2739.842105263158" as="targetPoint" />
          </mxGeometry>
        </mxCell>
        <mxCell id="npIou5uu6BImQNLSPjZp-286" style="edgeStyle=orthogonalEdgeStyle;rounded=0;orthogonalLoop=1;jettySize=auto;html=1;exitX=0.25;exitY=1;exitDx=0;exitDy=0;entryX=0;entryY=0.75;entryDx=0;entryDy=0;fontSize=12;startArrow=none;startFill=0;endArrow=classic;endFill=1;" parent="1" source="npIou5uu6BImQNLSPjZp-240" target="npIou5uu6BImQNLSPjZp-232" edge="1">
          <mxGeometry relative="1" as="geometry" />
        </mxCell>
        <mxCell id="npIou5uu6BImQNLSPjZp-296" value="counter_rst_strobe_i" style="edgeLabel;html=1;align=center;verticalAlign=middle;resizable=0;points=[];fontSize=12;" parent="npIou5uu6BImQNLSPjZp-286" vertex="1" connectable="0">
          <mxGeometry x="0.6212" y="-1" relative="1" as="geometry">
            <mxPoint x="-60" as="offset" />
          </mxGeometry>
        </mxCell>
        <mxCell id="npIou5uu6BImQNLSPjZp-240" value="curr_strobe" style="rounded=0;whiteSpace=wrap;html=1;" parent="1" vertex="1">
          <mxGeometry x="410" y="2730" width="120" height="20" as="geometry" />
        </mxCell>
        <mxCell id="npIou5uu6BImQNLSPjZp-241" style="edgeStyle=orthogonalEdgeStyle;rounded=0;orthogonalLoop=1;jettySize=auto;html=1;entryX=0;entryY=0.5;entryDx=0;entryDy=0;" parent="1" source="npIou5uu6BImQNLSPjZp-242" target="npIou5uu6BImQNLSPjZp-245" edge="1">
          <mxGeometry relative="1" as="geometry" />
        </mxCell>
        <mxCell id="npIou5uu6BImQNLSPjZp-242" value="clk_i" style="rounded=1;whiteSpace=wrap;html=1;" parent="1" vertex="1">
          <mxGeometry x="490.25" y="2690" width="40" height="20" as="geometry" />
        </mxCell>
        <mxCell id="npIou5uu6BImQNLSPjZp-243" style="edgeStyle=orthogonalEdgeStyle;rounded=0;orthogonalLoop=1;jettySize=auto;html=1;" parent="1" source="npIou5uu6BImQNLSPjZp-244" edge="1">
          <mxGeometry relative="1" as="geometry">
            <mxPoint x="430" y="2730" as="targetPoint" />
            <Array as="points">
              <mxPoint x="430" y="2730" />
            </Array>
          </mxGeometry>
        </mxCell>
        <mxCell id="npIou5uu6BImQNLSPjZp-244" value="rst_i" style="rounded=1;whiteSpace=wrap;html=1;" parent="1" vertex="1">
          <mxGeometry x="410" y="2690" width="40" height="20" as="geometry" />
        </mxCell>
        <mxCell id="npIou5uu6BImQNLSPjZp-245" value="" style="triangle;whiteSpace=wrap;html=1;rotation=90;" parent="1" vertex="1">
          <mxGeometry x="505.25" y="2728.75" width="10" height="12.5" as="geometry" />
        </mxCell>
        <mxCell id="npIou5uu6BImQNLSPjZp-246" value="sequential" style="text;html=1;align=center;verticalAlign=middle;resizable=0;points=[];autosize=1;strokeColor=#6c8ebf;fillColor=#dae8fc;fontSize=12;" parent="1" vertex="1">
          <mxGeometry x="540" y="2710" width="70" height="20" as="geometry" />
        </mxCell>
        <mxCell id="npIou5uu6BImQNLSPjZp-247" value="sampling_strb_o" style="rounded=1;whiteSpace=wrap;html=1;glass=0;fontSize=12;fillColor=default;gradientColor=none;" parent="1" vertex="1">
          <mxGeometry x="160" y="2720" width="160" height="40" as="geometry" />
        </mxCell>
        <mxCell id="npIou5uu6BImQNLSPjZp-308" style="edgeStyle=orthogonalEdgeStyle;rounded=0;orthogonalLoop=1;jettySize=auto;html=1;entryX=1;entryY=0.5;entryDx=0;entryDy=0;fontSize=12;startArrow=none;startFill=0;endArrow=classic;endFill=1;" parent="1" source="npIou5uu6BImQNLSPjZp-252" target="npIou5uu6BImQNLSPjZp-306" edge="1">
          <mxGeometry relative="1" as="geometry" />
        </mxCell>
        <mxCell id="npIou5uu6BImQNLSPjZp-252" value="&lt;b&gt;=&lt;/b&gt;" style="ellipse;whiteSpace=wrap;html=1;aspect=fixed;rounded=0;glass=0;fontSize=12;fillColor=default;gradientColor=none;" parent="1" vertex="1">
          <mxGeometry x="620" y="2790" width="20" height="20" as="geometry" />
        </mxCell>
        <mxCell id="npIou5uu6BImQNLSPjZp-253" style="edgeStyle=orthogonalEdgeStyle;rounded=0;orthogonalLoop=1;jettySize=auto;html=1;entryX=0.5;entryY=0;entryDx=0;entryDy=0;entryPerimeter=0;fontSize=12;endArrow=classic;endFill=1;" parent="1" source="npIou5uu6BImQNLSPjZp-254" target="npIou5uu6BImQNLSPjZp-258" edge="1">
          <mxGeometry relative="1" as="geometry" />
        </mxCell>
        <mxCell id="npIou5uu6BImQNLSPjZp-254" value="1" style="rounded=0;whiteSpace=wrap;html=1;glass=0;fontSize=12;fillColor=default;gradientColor=none;" parent="1" vertex="1">
          <mxGeometry x="730.5" y="2690" width="19.75" height="20" as="geometry" />
        </mxCell>
        <mxCell id="npIou5uu6BImQNLSPjZp-292" style="edgeStyle=orthogonalEdgeStyle;rounded=0;orthogonalLoop=1;jettySize=auto;html=1;entryX=0.5;entryY=0;entryDx=0;entryDy=0;fontSize=12;startArrow=none;startFill=0;endArrow=classic;endFill=1;" parent="1" source="npIou5uu6BImQNLSPjZp-258" target="npIou5uu6BImQNLSPjZp-252" edge="1">
          <mxGeometry relative="1" as="geometry">
            <Array as="points">
              <mxPoint x="630" y="2750" />
            </Array>
          </mxGeometry>
        </mxCell>
        <mxCell id="npIou5uu6BImQNLSPjZp-258" value="" style="verticalLabelPosition=bottom;shadow=0;dashed=0;align=center;html=1;verticalAlign=top;shape=mxgraph.electrical.abstract.sum;rounded=1;glass=0;labelBackgroundColor=#FFFFFF;fontSize=12;fillColor=default;gradientColor=none;" parent="1" vertex="1">
          <mxGeometry x="730" y="2740" width="20" height="20" as="geometry" />
        </mxCell>
        <mxCell id="npIou5uu6BImQNLSPjZp-264" value="-" style="text;html=1;align=center;verticalAlign=middle;resizable=0;points=[];autosize=1;strokeColor=none;fillColor=none;fontSize=12;" parent="1" vertex="1">
          <mxGeometry x="740" y="2725" width="20" height="20" as="geometry" />
        </mxCell>
        <mxCell id="npIou5uu6BImQNLSPjZp-265" value="+" style="text;html=1;align=center;verticalAlign=middle;resizable=0;points=[];autosize=1;strokeColor=none;fillColor=none;fontSize=12;" parent="1" vertex="1">
          <mxGeometry x="740" y="2750" width="20" height="20" as="geometry" />
        </mxCell>
        <mxCell id="npIou5uu6BImQNLSPjZp-267" value="combinatorial" style="text;html=1;align=center;verticalAlign=middle;resizable=0;points=[];autosize=1;strokeColor=#b85450;fillColor=#f8cecc;fontSize=12;" parent="1" vertex="1">
          <mxGeometry x="495.25" y="2830" width="90" height="20" as="geometry" />
        </mxCell>
        <mxCell id="npIou5uu6BImQNLSPjZp-269" value="strb_generator" style="whiteSpace=wrap;html=1;rounded=0;glass=0;fontSize=12;fillColor=#e1d5e7;strokeColor=#9673a6;" parent="1" vertex="1">
          <mxGeometry x="550" y="2620" width="100" height="20" as="geometry" />
        </mxCell>
        <mxCell id="npIou5uu6BImQNLSPjZp-271" style="edgeStyle=orthogonalEdgeStyle;rounded=0;orthogonalLoop=1;jettySize=auto;html=1;entryX=0.5;entryY=1;entryDx=0;entryDy=0;fontSize=12;endArrow=classic;endFill=1;" parent="1" source="npIou5uu6BImQNLSPjZp-270" target="npIou5uu6BImQNLSPjZp-171" edge="1">
          <mxGeometry relative="1" as="geometry" />
        </mxCell>
        <mxCell id="npIou5uu6BImQNLSPjZp-270" value="next_pwm" style="rounded=0;whiteSpace=wrap;html=1;" parent="1" vertex="1">
          <mxGeometry x="410" y="1960" width="120" height="20" as="geometry" />
        </mxCell>
        <mxCell id="npIou5uu6BImQNLSPjZp-278" style="edgeStyle=orthogonalEdgeStyle;rounded=0;orthogonalLoop=1;jettySize=auto;html=1;entryX=0.5;entryY=1;entryDx=0;entryDy=0;fontSize=12;endArrow=classic;endFill=1;entryPerimeter=0;" parent="1" source="npIou5uu6BImQNLSPjZp-274" target="npIou5uu6BImQNLSPjZp-202" edge="1">
          <mxGeometry relative="1" as="geometry" />
        </mxCell>
        <mxCell id="npIou5uu6BImQNLSPjZp-274" value="1" style="rounded=0;whiteSpace=wrap;html=1;glass=0;fontSize=12;fillColor=default;gradientColor=none;" parent="1" vertex="1">
          <mxGeometry x="460" y="2120" width="19.75" height="20" as="geometry" />
        </mxCell>
        <mxCell id="npIou5uu6BImQNLSPjZp-213" value="" style="shape=waypoint;sketch=0;size=6;pointerEvents=1;points=[];fillColor=none;resizable=0;rotatable=0;perimeter=centerPerimeter;snapToPoint=1;rounded=1;glass=0;labelBackgroundColor=#FFFFFF;fontSize=12;html=1;" parent="1" vertex="1">
          <mxGeometry x="510" y="2000" width="40" height="40" as="geometry" />
        </mxCell>
        <mxCell id="npIou5uu6BImQNLSPjZp-276" value="" style="edgeStyle=orthogonalEdgeStyle;rounded=0;orthogonalLoop=1;jettySize=auto;html=1;exitX=0;exitY=0.25;exitDx=0;exitDy=0;entryDx=0;entryDy=0;fontSize=12;endArrow=none;endFill=1;" parent="1" source="npIou5uu6BImQNLSPjZp-157" target="npIou5uu6BImQNLSPjZp-213" edge="1">
          <mxGeometry relative="1" as="geometry">
            <mxPoint x="720" y="2020" as="sourcePoint" />
            <mxPoint x="480.0000000000074" y="2020" as="targetPoint" />
          </mxGeometry>
        </mxCell>
        <mxCell id="npIou5uu6BImQNLSPjZp-277" value="counter_o" style="edgeLabel;html=1;align=center;verticalAlign=middle;resizable=0;points=[];fontSize=12;" parent="npIou5uu6BImQNLSPjZp-276" vertex="1" connectable="0">
          <mxGeometry x="-0.268" relative="1" as="geometry">
            <mxPoint x="-20" as="offset" />
          </mxGeometry>
        </mxCell>
        <mxCell id="npIou5uu6BImQNLSPjZp-299" style="edgeStyle=orthogonalEdgeStyle;rounded=0;orthogonalLoop=1;jettySize=auto;html=1;entryX=0.5;entryY=1;entryDx=0;entryDy=0;entryPerimeter=0;fontSize=12;startArrow=none;startFill=0;endArrow=classic;endFill=1;" parent="1" source="npIou5uu6BImQNLSPjZp-281" target="npIou5uu6BImQNLSPjZp-258" edge="1">
          <mxGeometry relative="1" as="geometry" />
        </mxCell>
        <mxCell id="npIou5uu6BImQNLSPjZp-281" value="PRESCALER" style="rounded=1;whiteSpace=wrap;html=1;glass=0;labelBackgroundColor=#FFFFFF;fontSize=12;fillColor=default;gradientColor=none;" parent="1" vertex="1">
          <mxGeometry x="695" y="2790" width="90" height="20" as="geometry" />
        </mxCell>
        <mxCell id="npIou5uu6BImQNLSPjZp-307" style="edgeStyle=orthogonalEdgeStyle;rounded=0;orthogonalLoop=1;jettySize=auto;html=1;entryX=0.5;entryY=1;entryDx=0;entryDy=0;fontSize=12;startArrow=none;startFill=0;endArrow=classic;endFill=1;" parent="1" source="npIou5uu6BImQNLSPjZp-306" target="npIou5uu6BImQNLSPjZp-240" edge="1">
          <mxGeometry relative="1" as="geometry">
            <Array as="points">
              <mxPoint x="470" y="2800" />
            </Array>
          </mxGeometry>
        </mxCell>
        <mxCell id="npIou5uu6BImQNLSPjZp-306" value="next_strobe" style="rounded=0;whiteSpace=wrap;html=1;" parent="1" vertex="1">
          <mxGeometry x="480.25" y="2790" width="120" height="20" as="geometry" />
        </mxCell>
        <mxCell id="npIou5uu6BImQNLSPjZp-319" value="" style="rounded=1;whiteSpace=wrap;html=1;fontSize=12;fillColor=none;glass=0;dashed=1;strokeColor=#6c8ebf;" parent="1" vertex="1">
          <mxGeometry x="390" y="3430" width="160" height="100" as="geometry" />
        </mxCell>
        <mxCell id="npIou5uu6BImQNLSPjZp-320" style="edgeStyle=orthogonalEdgeStyle;rounded=0;orthogonalLoop=1;jettySize=auto;html=1;exitX=0;exitY=0.5;exitDx=0;exitDy=0;fontSize=12;endArrow=classic;endFill=1;entryX=1;entryY=0.5;entryDx=0;entryDy=0;" parent="1" source="npIou5uu6BImQNLSPjZp-323" target="npIou5uu6BImQNLSPjZp-330" edge="1">
          <mxGeometry relative="1" as="geometry">
            <mxPoint x="310.25" y="3501.842105263158" as="targetPoint" />
          </mxGeometry>
        </mxCell>
        <mxCell id="npIou5uu6BImQNLSPjZp-371" style="edgeStyle=orthogonalEdgeStyle;rounded=0;orthogonalLoop=1;jettySize=auto;html=1;exitX=0.75;exitY=1;exitDx=0;exitDy=0;entryX=0.5;entryY=0;entryDx=0;entryDy=0;entryPerimeter=0;fontSize=12;startArrow=none;startFill=0;endArrow=classic;endFill=1;" parent="1" source="npIou5uu6BImQNLSPjZp-323" target="npIou5uu6BImQNLSPjZp-365" edge="1">
          <mxGeometry relative="1" as="geometry">
            <Array as="points">
              <mxPoint x="500" y="3560" />
              <mxPoint x="580" y="3560" />
            </Array>
          </mxGeometry>
        </mxCell>
        <mxCell id="npIou5uu6BImQNLSPjZp-323" value="curr_cnt" style="rounded=0;whiteSpace=wrap;html=1;" parent="1" vertex="1">
          <mxGeometry x="410.25" y="3492" width="120" height="20" as="geometry" />
        </mxCell>
        <mxCell id="npIou5uu6BImQNLSPjZp-324" style="edgeStyle=orthogonalEdgeStyle;rounded=0;orthogonalLoop=1;jettySize=auto;html=1;entryX=0;entryY=0.5;entryDx=0;entryDy=0;" parent="1" source="npIou5uu6BImQNLSPjZp-325" target="npIou5uu6BImQNLSPjZp-328" edge="1">
          <mxGeometry relative="1" as="geometry" />
        </mxCell>
        <mxCell id="npIou5uu6BImQNLSPjZp-325" value="clk_i" style="rounded=1;whiteSpace=wrap;html=1;" parent="1" vertex="1">
          <mxGeometry x="490.5" y="3452" width="40" height="20" as="geometry" />
        </mxCell>
        <mxCell id="npIou5uu6BImQNLSPjZp-326" style="edgeStyle=orthogonalEdgeStyle;rounded=0;orthogonalLoop=1;jettySize=auto;html=1;" parent="1" source="npIou5uu6BImQNLSPjZp-327" edge="1">
          <mxGeometry relative="1" as="geometry">
            <mxPoint x="430.25" y="3492" as="targetPoint" />
            <Array as="points">
              <mxPoint x="430.25" y="3492" />
            </Array>
          </mxGeometry>
        </mxCell>
        <mxCell id="npIou5uu6BImQNLSPjZp-327" value="rst_i" style="rounded=1;whiteSpace=wrap;html=1;" parent="1" vertex="1">
          <mxGeometry x="410.25" y="3452" width="40" height="20" as="geometry" />
        </mxCell>
        <mxCell id="npIou5uu6BImQNLSPjZp-328" value="" style="triangle;whiteSpace=wrap;html=1;rotation=90;" parent="1" vertex="1">
          <mxGeometry x="505.5" y="3490.75" width="10" height="12.5" as="geometry" />
        </mxCell>
        <mxCell id="npIou5uu6BImQNLSPjZp-329" value="sequential" style="text;html=1;align=center;verticalAlign=middle;resizable=0;points=[];autosize=1;strokeColor=#6c8ebf;fillColor=#dae8fc;fontSize=12;" parent="1" vertex="1">
          <mxGeometry x="550.25" y="3472" width="70" height="20" as="geometry" />
        </mxCell>
        <mxCell id="npIou5uu6BImQNLSPjZp-330" value="counter_o" style="rounded=1;whiteSpace=wrap;html=1;glass=0;fontSize=12;fillColor=default;gradientColor=none;" parent="1" vertex="1">
          <mxGeometry x="160.25" y="3482" width="160" height="40" as="geometry" />
        </mxCell>
        <mxCell id="npIou5uu6BImQNLSPjZp-339" value="combinatorial" style="text;html=1;align=center;verticalAlign=middle;resizable=0;points=[];autosize=1;strokeColor=#b85450;fillColor=#f8cecc;fontSize=12;" parent="1" vertex="1">
          <mxGeometry x="455.25" y="3710" width="90" height="20" as="geometry" />
        </mxCell>
        <mxCell id="npIou5uu6BImQNLSPjZp-340" value="counter" style="whiteSpace=wrap;html=1;rounded=0;glass=0;fontSize=12;fillColor=#e1d5e7;strokeColor=#9673a6;" parent="1" vertex="1">
          <mxGeometry x="450" y="3380" width="100" height="20" as="geometry" />
        </mxCell>
        <mxCell id="npIou5uu6BImQNLSPjZp-356" style="edgeStyle=orthogonalEdgeStyle;rounded=0;orthogonalLoop=1;jettySize=auto;html=1;entryX=0.25;entryY=1;entryDx=0;entryDy=0;fontSize=12;startArrow=none;startFill=0;endArrow=classic;endFill=1;" parent="1" source="npIou5uu6BImQNLSPjZp-344" target="npIou5uu6BImQNLSPjZp-323" edge="1">
          <mxGeometry relative="1" as="geometry" />
        </mxCell>
        <mxCell id="npIou5uu6BImQNLSPjZp-344" value="next_cnt" style="rounded=0;whiteSpace=wrap;html=1;" parent="1" vertex="1">
          <mxGeometry x="400" y="3570" width="80" height="20" as="geometry" />
        </mxCell>
        <mxCell id="npIou5uu6BImQNLSPjZp-347" style="edgeStyle=orthogonalEdgeStyle;rounded=0;orthogonalLoop=1;jettySize=auto;html=1;entryX=0.957;entryY=1.001;entryDx=0;entryDy=0;entryPerimeter=0;fontSize=12;startArrow=none;startFill=0;endArrow=classic;endFill=1;" parent="1" source="npIou5uu6BImQNLSPjZp-345" target="npIou5uu6BImQNLSPjZp-268" edge="1">
          <mxGeometry relative="1" as="geometry" />
        </mxCell>
        <mxCell id="npIou5uu6BImQNLSPjZp-345" value="clk_i" style="rounded=1;whiteSpace=wrap;html=1;" parent="1" vertex="1">
          <mxGeometry x="800.25" y="2980" width="40" height="20" as="geometry" />
        </mxCell>
        <mxCell id="npIou5uu6BImQNLSPjZp-348" style="edgeStyle=orthogonalEdgeStyle;rounded=0;orthogonalLoop=1;jettySize=auto;html=1;entryX=0.835;entryY=0.999;entryDx=0;entryDy=0;entryPerimeter=0;fontSize=12;startArrow=none;startFill=0;endArrow=classic;endFill=1;" parent="1" source="npIou5uu6BImQNLSPjZp-346" target="npIou5uu6BImQNLSPjZp-268" edge="1">
          <mxGeometry relative="1" as="geometry" />
        </mxCell>
        <mxCell id="npIou5uu6BImQNLSPjZp-346" value="rst_i" style="rounded=1;whiteSpace=wrap;html=1;" parent="1" vertex="1">
          <mxGeometry x="740.25" y="2980" width="40" height="20" as="geometry" />
        </mxCell>
        <mxCell id="npIou5uu6BImQNLSPjZp-357" style="edgeStyle=orthogonalEdgeStyle;rounded=0;orthogonalLoop=1;jettySize=auto;html=1;entryX=0.5;entryY=1;entryDx=0;entryDy=0;fontSize=12;startArrow=none;startFill=0;endArrow=classic;endFill=1;" parent="1" source="npIou5uu6BImQNLSPjZp-354" target="npIou5uu6BImQNLSPjZp-344" edge="1">
          <mxGeometry relative="1" as="geometry" />
        </mxCell>
        <mxCell id="npIou5uu6BImQNLSPjZp-354" value="0&lt;br&gt;&lt;br&gt;&lt;br&gt;1" style="shape=trapezoid;perimeter=trapezoidPerimeter;whiteSpace=wrap;fixedSize=1;rotation=90;horizontal=0;textDirection=ltr;verticalAlign=middle;html=1;direction=west;align=right;" parent="1" vertex="1">
          <mxGeometry x="450.25" y="3620" width="100" height="40" as="geometry" />
        </mxCell>
        <mxCell id="npIou5uu6BImQNLSPjZp-374" style="edgeStyle=orthogonalEdgeStyle;rounded=0;orthogonalLoop=1;jettySize=auto;html=1;entryX=0;entryY=0.5;entryDx=0;entryDy=0;fontSize=12;startArrow=none;startFill=0;endArrow=classic;endFill=1;" parent="1" source="npIou5uu6BImQNLSPjZp-355" target="npIou5uu6BImQNLSPjZp-354" edge="1">
          <mxGeometry relative="1" as="geometry">
            <Array as="points">
              <mxPoint x="500" y="3700" />
            </Array>
          </mxGeometry>
        </mxCell>
        <mxCell id="npIou5uu6BImQNLSPjZp-355" value="counter_rst_strobe_i" style="rounded=1;whiteSpace=wrap;html=1;glass=0;fontSize=12;fillColor=default;gradientColor=none;" parent="1" vertex="1">
          <mxGeometry x="160" y="3680" width="160" height="40" as="geometry" />
        </mxCell>
        <mxCell id="npIou5uu6BImQNLSPjZp-359" value="counter_o" style="rounded=1;whiteSpace=wrap;html=1;glass=0;fontSize=12;fillColor=default;gradientColor=none;" parent="1" vertex="1">
          <mxGeometry x="160.25" y="3482" width="160" height="40" as="geometry" />
        </mxCell>
        <mxCell id="ta56inV7T2upTpdkAs2z-4" style="edgeStyle=orthogonalEdgeStyle;rounded=0;orthogonalLoop=1;jettySize=auto;html=1;exitX=0.5;exitY=0;exitDx=0;exitDy=0;entryX=0.25;entryY=1;entryDx=0;entryDy=0;" edge="1" parent="1" source="npIou5uu6BImQNLSPjZp-360" target="ta56inV7T2upTpdkAs2z-2">
          <mxGeometry relative="1" as="geometry" />
        </mxCell>
        <mxCell id="npIou5uu6BImQNLSPjZp-360" value="1&lt;br&gt;&lt;br&gt;&lt;div&gt;&lt;br&gt;&lt;/div&gt;0" style="shape=trapezoid;perimeter=trapezoidPerimeter;whiteSpace=wrap;fixedSize=1;rotation=90;horizontal=0;textDirection=ltr;verticalAlign=middle;html=1;direction=west;align=right;" parent="1" vertex="1">
          <mxGeometry x="490" y="1180" width="100" height="40" as="geometry" />
        </mxCell>
        <mxCell id="npIou5uu6BImQNLSPjZp-370" style="edgeStyle=orthogonalEdgeStyle;rounded=0;orthogonalLoop=1;jettySize=auto;html=1;entryX=0.5;entryY=1;entryDx=0;entryDy=0;entryPerimeter=0;fontSize=12;startArrow=none;startFill=0;endArrow=classic;endFill=1;" parent="1" source="npIou5uu6BImQNLSPjZp-364" target="npIou5uu6BImQNLSPjZp-365" edge="1">
          <mxGeometry relative="1" as="geometry" />
        </mxCell>
        <mxCell id="npIou5uu6BImQNLSPjZp-364" value="1" style="rounded=0;whiteSpace=wrap;html=1;glass=0;fontSize=12;fillColor=default;gradientColor=none;" parent="1" vertex="1">
          <mxGeometry x="570.25" y="3630" width="19.75" height="20" as="geometry" />
        </mxCell>
        <mxCell id="npIou5uu6BImQNLSPjZp-369" style="edgeStyle=orthogonalEdgeStyle;rounded=0;orthogonalLoop=1;jettySize=auto;html=1;exitX=0;exitY=0.5;exitDx=0;exitDy=0;exitPerimeter=0;entryX=0.75;entryY=1;entryDx=0;entryDy=0;fontSize=12;startArrow=none;startFill=0;endArrow=classic;endFill=1;" parent="1" source="npIou5uu6BImQNLSPjZp-365" target="npIou5uu6BImQNLSPjZp-354" edge="1">
          <mxGeometry relative="1" as="geometry">
            <Array as="points">
              <mxPoint x="540" y="3600" />
              <mxPoint x="540" y="3615" />
            </Array>
          </mxGeometry>
        </mxCell>
        <mxCell id="npIou5uu6BImQNLSPjZp-365" value="" style="verticalLabelPosition=bottom;shadow=0;dashed=0;align=center;html=1;verticalAlign=top;shape=mxgraph.electrical.abstract.sum;rounded=1;glass=0;labelBackgroundColor=#FFFFFF;fontSize=12;fillColor=default;gradientColor=none;" parent="1" vertex="1">
          <mxGeometry x="569.87" y="3590" width="20" height="20" as="geometry" />
        </mxCell>
        <mxCell id="npIou5uu6BImQNLSPjZp-368" style="edgeStyle=orthogonalEdgeStyle;rounded=0;orthogonalLoop=1;jettySize=auto;html=1;entryX=0.25;entryY=1;entryDx=0;entryDy=0;fontSize=12;startArrow=none;startFill=0;endArrow=classic;endFill=1;" parent="1" source="npIou5uu6BImQNLSPjZp-366" target="npIou5uu6BImQNLSPjZp-354" edge="1">
          <mxGeometry relative="1" as="geometry">
            <Array as="points">
              <mxPoint x="540" y="3680" />
              <mxPoint x="540" y="3665" />
            </Array>
          </mxGeometry>
        </mxCell>
        <mxCell id="npIou5uu6BImQNLSPjZp-366" value="0" style="rounded=0;whiteSpace=wrap;html=1;glass=0;fontSize=12;fillColor=default;gradientColor=none;" parent="1" vertex="1">
          <mxGeometry x="570" y="3670" width="19.87" height="20" as="geometry" />
        </mxCell>
        <mxCell id="npIou5uu6BImQNLSPjZp-372" value="+" style="text;html=1;align=center;verticalAlign=middle;resizable=0;points=[];autosize=1;strokeColor=none;fillColor=none;fontSize=12;" parent="1" vertex="1">
          <mxGeometry x="580" y="3600" width="20" height="20" as="geometry" />
        </mxCell>
        <mxCell id="npIou5uu6BImQNLSPjZp-373" value="+" style="text;html=1;align=center;verticalAlign=middle;resizable=0;points=[];autosize=1;strokeColor=none;fillColor=none;fontSize=12;" parent="1" vertex="1">
          <mxGeometry x="580" y="3580" width="20" height="20" as="geometry" />
        </mxCell>
        <mxCell id="npIou5uu6BImQNLSPjZp-375" value="" style="whiteSpace=wrap;html=1;rounded=0;glass=0;labelBackgroundColor=#FFFFFF;fontSize=12;fillColor=none;strokeColor=#9673a6;" parent="1" vertex="1">
          <mxGeometry x="360.25" y="3400" width="279.75" height="360" as="geometry" />
        </mxCell>
        <mxCell id="npIou5uu6BImQNLSPjZp-379" style="edgeStyle=orthogonalEdgeStyle;rounded=0;orthogonalLoop=1;jettySize=auto;html=1;entryX=0.962;entryY=1;entryDx=0;entryDy=0;entryPerimeter=0;fontSize=12;startArrow=none;startFill=0;endArrow=classic;endFill=1;" parent="1" source="npIou5uu6BImQNLSPjZp-376" target="npIou5uu6BImQNLSPjZp-273" edge="1">
          <mxGeometry relative="1" as="geometry" />
        </mxCell>
        <mxCell id="npIou5uu6BImQNLSPjZp-376" value="clk_i" style="rounded=1;whiteSpace=wrap;html=1;" parent="1" vertex="1">
          <mxGeometry x="840" y="2190" width="40" height="20" as="geometry" />
        </mxCell>
        <mxCell id="npIou5uu6BImQNLSPjZp-383" style="edgeStyle=orthogonalEdgeStyle;rounded=0;orthogonalLoop=1;jettySize=auto;html=1;entryX=0.846;entryY=1;entryDx=0;entryDy=0;entryPerimeter=0;fontSize=12;startArrow=none;startFill=0;endArrow=classic;endFill=1;" parent="1" source="npIou5uu6BImQNLSPjZp-377" target="npIou5uu6BImQNLSPjZp-273" edge="1">
          <mxGeometry relative="1" as="geometry" />
        </mxCell>
        <mxCell id="npIou5uu6BImQNLSPjZp-377" value="rst_i" style="rounded=1;whiteSpace=wrap;html=1;" parent="1" vertex="1">
          <mxGeometry x="780.25" y="2190" width="40" height="20" as="geometry" />
        </mxCell>
        <mxCell id="npIou5uu6BImQNLSPjZp-386" style="edgeStyle=orthogonalEdgeStyle;rounded=0;orthogonalLoop=1;jettySize=auto;html=1;entryX=0.929;entryY=1;entryDx=0;entryDy=0;entryPerimeter=0;fontSize=12;startArrow=none;startFill=0;endArrow=classic;endFill=1;" parent="1" source="npIou5uu6BImQNLSPjZp-384" target="npIou5uu6BImQNLSPjZp-375" edge="1">
          <mxGeometry relative="1" as="geometry" />
        </mxCell>
        <mxCell id="npIou5uu6BImQNLSPjZp-384" value="clk_i" style="rounded=1;whiteSpace=wrap;html=1;" parent="1" vertex="1">
          <mxGeometry x="600.25" y="3780" width="40" height="20" as="geometry" />
        </mxCell>
        <mxCell id="npIou5uu6BImQNLSPjZp-387" style="edgeStyle=orthogonalEdgeStyle;rounded=0;orthogonalLoop=1;jettySize=auto;html=1;entryX=0.715;entryY=1;entryDx=0;entryDy=0;entryPerimeter=0;fontSize=12;startArrow=none;startFill=0;endArrow=classic;endFill=1;" parent="1" source="npIou5uu6BImQNLSPjZp-385" target="npIou5uu6BImQNLSPjZp-375" edge="1">
          <mxGeometry relative="1" as="geometry" />
        </mxCell>
        <mxCell id="npIou5uu6BImQNLSPjZp-385" value="rst_i" style="rounded=1;whiteSpace=wrap;html=1;" parent="1" vertex="1">
          <mxGeometry x="540.25" y="3780" width="40" height="20" as="geometry" />
        </mxCell>
        <mxCell id="7YrD0tuDyk2s3fIIuj6a-3" style="edgeStyle=orthogonalEdgeStyle;rounded=0;orthogonalLoop=1;jettySize=auto;html=1;exitX=1;exitY=0.5;exitDx=0;exitDy=0;entryX=1;entryY=0.5;entryDx=0;entryDy=0;" parent="1" source="7YrD0tuDyk2s3fIIuj6a-2" target="npIou5uu6BImQNLSPjZp-157" edge="1">
          <mxGeometry relative="1" as="geometry">
            <Array as="points">
              <mxPoint x="860" y="1960" />
              <mxPoint x="860" y="2030" />
            </Array>
          </mxGeometry>
        </mxCell>
        <mxCell id="7YrD0tuDyk2s3fIIuj6a-2" value="COUNTER_LEN" style="rounded=1;whiteSpace=wrap;html=1;" parent="1" vertex="1">
          <mxGeometry x="730.5" y="1950" width="100" height="20" as="geometry" />
        </mxCell>
        <mxCell id="ta56inV7T2upTpdkAs2z-7" style="edgeStyle=orthogonalEdgeStyle;rounded=0;orthogonalLoop=1;jettySize=auto;html=1;exitX=0.5;exitY=0;exitDx=0;exitDy=0;entryX=0.5;entryY=1;entryDx=0;entryDy=0;" edge="1" parent="1" source="ta56inV7T2upTpdkAs2z-2" target="dwvMu35WHq-RKmSjm5z5-40">
          <mxGeometry relative="1" as="geometry" />
        </mxCell>
        <mxCell id="ta56inV7T2upTpdkAs2z-2" value="0&lt;br&gt;1" style="shape=trapezoid;perimeter=trapezoidPerimeter;whiteSpace=wrap;fixedSize=1;rotation=90;horizontal=0;textDirection=ltr;verticalAlign=middle;html=1;direction=west;align=right;size=11.25;" vertex="1" parent="1">
          <mxGeometry x="468.75" y="1180" width="41.25" height="20" as="geometry" />
        </mxCell>
        <mxCell id="ta56inV7T2upTpdkAs2z-14" style="edgeStyle=orthogonalEdgeStyle;rounded=0;orthogonalLoop=1;jettySize=auto;html=1;exitX=0.5;exitY=0;exitDx=0;exitDy=0;entryX=1;entryY=0.5;entryDx=0;entryDy=0;" edge="1" parent="1" source="ta56inV7T2upTpdkAs2z-8" target="npIou5uu6BImQNLSPjZp-112">
          <mxGeometry relative="1" as="geometry" />
        </mxCell>
        <mxCell id="ta56inV7T2upTpdkAs2z-8" value="1&lt;br&gt;0" style="shape=trapezoid;perimeter=trapezoidPerimeter;whiteSpace=wrap;fixedSize=1;rotation=90;horizontal=0;textDirection=ltr;verticalAlign=middle;html=1;direction=west;align=right;size=11.25;" vertex="1" parent="1">
          <mxGeometry x="469.38" y="1340" width="41.25" height="20" as="geometry" />
        </mxCell>
        <mxCell id="ta56inV7T2upTpdkAs2z-27" value="1&lt;br&gt;&lt;br&gt;&lt;div&gt;&lt;br&gt;&lt;/div&gt;0" style="shape=trapezoid;perimeter=trapezoidPerimeter;whiteSpace=wrap;fixedSize=1;rotation=90;horizontal=0;textDirection=ltr;verticalAlign=middle;html=1;direction=west;align=right;" vertex="1" parent="1">
          <mxGeometry x="490" y="1180" width="100" height="40" as="geometry" />
        </mxCell>
        <mxCell id="ta56inV7T2upTpdkAs2z-28" value="0&lt;br&gt;1" style="shape=trapezoid;perimeter=trapezoidPerimeter;whiteSpace=wrap;fixedSize=1;rotation=90;horizontal=0;textDirection=ltr;verticalAlign=middle;html=1;direction=west;align=right;size=11.25;" vertex="1" parent="1">
          <mxGeometry x="468.75" y="1180" width="41.25" height="20" as="geometry" />
        </mxCell>
        <mxCell id="ta56inV7T2upTpdkAs2z-29" value="" style="rounded=0;whiteSpace=wrap;html=1;glass=0;fontSize=12;fillColor=none;strokeColor=#9673a6;arcSize=5;" vertex="1" parent="1">
          <mxGeometry x="280" y="980" width="540" height="460" as="geometry" />
        </mxCell>
      </root>
    </mxGraphModel>
  </diagram>
</mxfile>
